<?xml version="1.0" encoding="UTF-8" standalone="no"?>
<svg
   sodipodi:docname="uoc_logo_white.svg"
   version="1.1"
   viewBox="0 0 566.9 117.9"
   data-name="Layer 1"
   id="Layer_1"
   inkscape:version="1.1.2 (0a00cf5339, 2022-02-04)"
   xmlns:inkscape="http://www.inkscape.org/namespaces/inkscape"
   xmlns:sodipodi="http://sodipodi.sourceforge.net/DTD/sodipodi-0.dtd"
   xmlns="http://www.w3.org/2000/svg"
   xmlns:svg="http://www.w3.org/2000/svg">
  <sodipodi:namedview
     id="namedview543"
     pagecolor="#ffffff"
     bordercolor="#666666"
     borderopacity="1.0"
     inkscape:pageshadow="2"
     inkscape:pageopacity="0.0"
     inkscape:pagecheckerboard="0"
     showgrid="false"
     inkscape:zoom="2.8805786"
     inkscape:cx="228.77348"
     inkscape:cy="58.842345"
     inkscape:window-width="1846"
     inkscape:window-height="1016"
     inkscape:window-x="74"
     inkscape:window-y="27"
     inkscape:window-maximized="1"
     inkscape:current-layer="Layer_1" />
  <defs
     id="defs295">
    <style
       id="style293">.cls-1,.cls-2{fill:none;stroke-miterlimit:10;stroke-width:0.24px;}.cls-1{stroke:#fd0;}.cls-2{stroke:#000;}.cls-3{fill:#131108;}.cls-4{fill:#fff;}.cls-5{fill:#e63329;}.cls-6{fill:#fd0;}</style>
  </defs>
  <g
     id="g2402">
    <path
       class="cls-1"
       d="m 95.8,65 a 55.51,55.51 0 0 1 -2.3,14.2 37.11,37.11 0 0 1 -5.4,10.7 c -4.3,5.7 -9.5,8.5 -13,10.4 -0.3,0.2 -2.4,1.2 -12.2,6.1 V 65 h 32.9"
       id="path297" />
    <path
       class="cls-1"
       d="m 37.6,65 v 41.4 c -9.9,-4.9 -11.9,-6 -12.2,-6.1 -3.5,-1.9 -8.7,-4.7 -13,-10.4 A 35.87,35.87 0 0 1 7,79.2 54.78,54.78 0 0 1 4.7,65 h 32.9"
       id="path299" />
    <path
       class="cls-2"
       d="m 95.8,6 h -33 v 33.8 h 33 z"
       id="path301" />
    <path
       class="cls-2"
       d="m 37.6,6 h -33 v 33.8 h 33 z"
       id="path303" />
    <path
       class="cls-3"
       d="m 50.2,117.9 -1,-0.5 C 47.7,116.7 24.5,105.1 23.1,104.4 15.6,100.3 0,91.8 0,62 V 1.4 H 100.4 V 62 c 0,29.8 -15.6,38.3 -23.1,42.4 -1.4,0.8 -24.7,12.3 -26.1,13 z"
       id="path305" />
    <path
       class="cls-4"
       d="M 60.4,42.2 V 3.6 H 40 V 42.2 H 2.2 V 62 62 62.6 H 40 v 47.7 c 5.5,2.7 10.2,5.1 10.2,5.1 v 0 l 10.2,-5.1 V 62.6 H 98.2 V 42.2 Z"
       id="path307" />
    <rect
       class="cls-5"
       x="2.2"
       y="3.5999999"
       width="37.799999"
       height="38.599998"
       id="rect309" />
    <rect
       class="cls-5"
       x="60.400002"
       y="3.5999999"
       width="37.799999"
       height="38.599998"
       id="rect311" />
    <path
       class="cls-5"
       d="M 40,62.6 H 2.2 c 0.2,27.7 14.4,35.7 22,39.8 l 15.8,7.9 z"
       id="path313" />
    <path
       class="cls-5"
       d="m 60.4,62.6 v 47.7 l 15.8,-7.9 C 83.8,98.3 98,90.3 98.2,62.6 Z"
       id="path315" />
    <path
       class="cls-3"
       d="m 73.4,52.7 0.8,-0.9 -1,-1.2 -1,1.2 0.8,0.9 c 0,0.5 0,4.6 -2.4,6 a 4.09,4.09 0 0 0 1.9,-0.1 12.54,12.54 0 0 0 0.7,2.3 12.54,12.54 0 0 0 0.7,-2.3 6.92,6.92 0 0 0 1.9,0.1 c -2.4,-1.5 -2.4,-5.6 -2.4,-6 z"
       id="path317" />
    <path
       class="cls-3"
       d="m 79.6,45.7 0.8,-0.9 -1,-1.2 -1,1.2 0.8,0.9 c 0,0.5 0,4.6 -2.4,6 a 4.09,4.09 0 0 0 1.9,-0.1 12.54,12.54 0 0 0 0.7,2.3 12.54,12.54 0 0 0 0.7,-2.3 6.92,6.92 0 0 0 1.9,0.1 c -2.5,-1.4 -2.4,-5.5 -2.4,-6 z"
       id="path319" />
    <path
       class="cls-3"
       d="m 85.7,52.7 0.8,-0.9 -1,-1.2 -1,1.2 0.8,0.9 c 0,0.5 0,4.6 -2.4,6 a 4.09,4.09 0 0 0 1.9,-0.1 12.54,12.54 0 0 0 0.7,2.3 12.54,12.54 0 0 0 0.7,-2.3 6.92,6.92 0 0 0 1.9,0.1 c -2.4,-1.5 -2.4,-5.6 -2.4,-6 z"
       id="path321" />
    <path
       class="cls-3"
       d="m 91.9,45.7 0.8,-0.9 -1,-1.2 -1,1.2 0.8,0.9 c 0,0.5 0,4.6 -2.4,6 a 4.09,4.09 0 0 0 1.9,-0.1 12.54,12.54 0 0 0 0.7,2.3 12.54,12.54 0 0 0 0.7,-2.3 6.92,6.92 0 0 0 1.9,0.1 c -2.5,-1.4 -2.4,-5.5 -2.4,-6 z"
       id="path323" />
    <path
       class="cls-3"
       d="m 67.2,45.7 0.8,-0.9 -1,-1.2 -1,1.2 0.8,0.9 c 0,0.5 0,4.6 -2.4,6 a 4.09,4.09 0 0 0 1.9,-0.1 12.54,12.54 0 0 0 0.7,2.3 12.54,12.54 0 0 0 0.7,-2.3 6.92,6.92 0 0 0 1.9,0.1 c -2.4,-1.4 -2.4,-5.5 -2.4,-6 z"
       id="path325" />
    <path
       class="cls-3"
       d="m 15.1,52.7 0.8,-0.9 -1,-1.2 -1,1.2 0.8,0.9 c 0,0.5 0,4.6 -2.4,6 a 4.09,4.09 0 0 0 1.9,-0.1 12.54,12.54 0 0 0 0.7,2.3 12.54,12.54 0 0 0 0.7,-2.3 6.92,6.92 0 0 0 1.9,0.1 c -2.4,-1.5 -2.4,-5.6 -2.4,-6 z"
       id="path327" />
    <path
       class="cls-3"
       d="m 21.3,45.7 0.8,-0.9 -1,-1.2 -1,1.2 0.8,0.9 c 0,0.5 0,4.6 -2.4,6 a 4.09,4.09 0 0 0 1.9,-0.1 12.54,12.54 0 0 0 0.7,2.3 12.54,12.54 0 0 0 0.7,-2.3 6.92,6.92 0 0 0 1.9,0.1 c -2.5,-1.4 -2.5,-5.5 -2.4,-6 z"
       id="path329" />
    <path
       class="cls-3"
       d="m 27.4,52.7 0.8,-0.9 -1,-1.2 -1,1.2 0.8,0.9 c 0,0.5 0,4.6 -2.4,6 a 4.09,4.09 0 0 0 1.9,-0.1 12.54,12.54 0 0 0 0.7,2.3 12.54,12.54 0 0 0 0.7,-2.3 6.92,6.92 0 0 0 1.9,0.1 c -2.4,-1.5 -2.4,-5.6 -2.4,-6 z"
       id="path331" />
    <path
       class="cls-3"
       d="m 33.6,45.7 0.8,-0.9 -1,-1.2 -1,1.2 0.8,0.9 c 0,0.5 0,4.6 -2.4,6 a 4.09,4.09 0 0 0 1.9,-0.1 12.54,12.54 0 0 0 0.7,2.3 12.54,12.54 0 0 0 0.7,-2.3 6.92,6.92 0 0 0 1.9,0.1 c -2.5,-1.4 -2.4,-5.5 -2.4,-6 z"
       id="path333" />
    <path
       class="cls-3"
       d="m 8.9,45.7 0.8,-0.9 -1,-1.2 -1,1.2 0.8,0.9 c 0,0.5 0,4.6 -2.4,6 a 4.09,4.09 0 0 0 1.9,-0.1 12.54,12.54 0 0 0 0.7,2.3 12.54,12.54 0 0 0 0.7,-2.3 6.92,6.92 0 0 0 1.9,0.1 C 8.9,50.3 8.9,46.2 8.9,45.7 Z"
       id="path335" />
    <path
       class="cls-3"
       d="m 50.5,68.3 0.8,-0.9 -1,-1.2 -1,1.2 0.8,0.9 c 0,0.5 0,4.6 -2.4,6 a 4.09,4.09 0 0 0 1.9,-0.1 12.54,12.54 0 0 0 0.7,2.3 12.54,12.54 0 0 0 0.7,-2.3 6.92,6.92 0 0 0 1.9,0.1 c -2.5,-1.4 -2.5,-5.5 -2.4,-6 z"
       id="path337" />
    <path
       class="cls-3"
       d="m 50.5,89.3 0.8,-0.9 -1,-1.2 -1,1.2 0.8,0.9 c 0,0.5 0,4.6 -2.4,6 a 4.09,4.09 0 0 0 1.9,-0.1 12.54,12.54 0 0 0 0.7,2.3 12.54,12.54 0 0 0 0.7,-2.3 6.92,6.92 0 0 0 1.9,0.1 c -2.5,-1.5 -2.5,-5.6 -2.4,-6 z"
       id="path339" />
    <path
       class="cls-3"
       d="m 56.2,78.8 0.8,-0.9 -1,-1.2 -1,1.2 0.8,0.9 c 0,0.5 0,4.6 -2.4,6 a 4.09,4.09 0 0 0 1.9,-0.1 12.54,12.54 0 0 0 0.7,2.3 12.54,12.54 0 0 0 0.7,-2.3 6.92,6.92 0 0 0 1.9,0.1 c -2.5,-1.4 -2.4,-5.5 -2.4,-6 z"
       id="path341" />
    <path
       class="cls-3"
       d="m 44.7,78.8 0.8,-0.9 -1,-1.2 -1,1.2 0.8,0.9 c 0,0.5 0,4.6 -2.4,6 a 4.09,4.09 0 0 0 1.9,-0.1 12.54,12.54 0 0 0 0.7,2.3 12.54,12.54 0 0 0 0.7,-2.3 6.92,6.92 0 0 0 1.9,0.1 c -2.5,-1.4 -2.4,-5.5 -2.4,-6 z"
       id="path343" />
    <path
       class="cls-3"
       d="m 56.2,99.7 0.8,-0.9 -1,-1.2 -1,1.2 0.8,0.9 c 0,0.5 0,4.6 -2.4,6 a 4.09,4.09 0 0 0 1.9,-0.1 12.54,12.54 0 0 0 0.7,2.3 12.54,12.54 0 0 0 0.7,-2.3 6.92,6.92 0 0 0 1.9,0.1 c -2.5,-1.4 -2.4,-5.5 -2.4,-6 z"
       id="path345" />
    <path
       class="cls-3"
       d="m 44.7,99.7 0.8,-0.9 -1,-1.2 -1,1.2 0.8,0.9 c 0,0.5 0,4.6 -2.4,6 a 4.09,4.09 0 0 0 1.9,-0.1 12.54,12.54 0 0 0 0.7,2.3 12.54,12.54 0 0 0 0.7,-2.3 6.92,6.92 0 0 0 1.9,0.1 c -2.5,-1.4 -2.4,-5.5 -2.4,-6 z"
       id="path347" />
    <path
       class="cls-3"
       d="m 50.5,20.7 0.8,-0.9 -1,-1.2 -1,1.2 0.8,0.9 c 0,0.5 0,4.6 -2.4,6 a 4.09,4.09 0 0 0 1.9,-0.1 12.54,12.54 0 0 0 0.7,2.3 12.54,12.54 0 0 0 0.7,-2.3 6.92,6.92 0 0 0 1.9,0.1 c -2.5,-1.4 -2.5,-5.5 -2.4,-6 z"
       id="path349" />
    <path
       class="cls-3"
       d="M 56.2,10.3 57,9.4 56,8.2 l -1,1.2 0.8,0.9 c 0,0.5 0,4.6 -2.4,6 a 4.09,4.09 0 0 0 1.9,-0.1 12.54,12.54 0 0 0 0.7,2.3 12.54,12.54 0 0 0 0.7,-2.3 6.92,6.92 0 0 0 1.9,0.1 c -2.5,-1.5 -2.4,-5.6 -2.4,-6 z"
       id="path351" />
    <path
       class="cls-3"
       d="m 44.7,10.3 0.8,-0.9 -1,-1.2 -1,1.2 0.8,0.9 c 0,0.5 0,4.6 -2.4,6 a 4.09,4.09 0 0 0 1.9,-0.1 12.54,12.54 0 0 0 0.7,2.3 12.54,12.54 0 0 0 0.7,-2.3 6.92,6.92 0 0 0 1.9,0.1 c -2.5,-1.5 -2.4,-5.6 -2.4,-6 z"
       id="path353" />
    <path
       class="cls-3"
       d="m 56.2,31.2 0.8,-0.9 -1,-1.2 -1,1.2 0.8,0.9 c 0,0.5 0,4.6 -2.4,6 a 4.09,4.09 0 0 0 1.9,-0.1 12.54,12.54 0 0 0 0.7,2.3 12.54,12.54 0 0 0 0.7,-2.3 6.92,6.92 0 0 0 1.9,0.1 c -2.5,-1.5 -2.4,-5.5 -2.4,-6 z"
       id="path355" />
    <path
       class="cls-3"
       d="m 44.7,31.2 0.8,-0.9 -1,-1.2 -1,1.2 0.8,0.9 c 0,0.5 0,4.6 -2.4,6 a 4.09,4.09 0 0 0 1.9,-0.1 12.54,12.54 0 0 0 0.7,2.3 12.54,12.54 0 0 0 0.7,-2.3 6.92,6.92 0 0 0 1.9,0.1 c -2.5,-1.5 -2.4,-5.5 -2.4,-6 z"
       id="path357" />
    <path
       class="cls-3"
       d="m 31.8,22.6 0.1,0.5 a 6.21,6.21 0 0 0 0.3,1 c 0.4,1.8 0.7,2.3 1.6,2.3 a 1.23,1.23 0 0 0 1.1,-0.7 l 0.2,-0.6 c 0,-0.1 0.2,-0.2 0.3,-0.2 0.3,0 0.5,0.4 0.5,1.2 0,0.2 0.1,0.8 0.2,1.6 a 7.08,7.08 0 0 1 0.1,1.4 1.8,1.8 0 0 1 -0.2,1 15,15 0 0 1 0.2,2 3.36,3.36 0 0 1 -0.4,1.9 5,5 0 0 1 0.2,1.2 4.48,4.48 0 0 1 -0.1,1.1 c -0.1,0.8 -0.2,1 -0.2,1.1 a 0.6,0.6 0 0 0 0.1,0.4 0.76,0.76 0 0 1 0.1,0.4 c 0,0.1 0,0.2 -0.1,0.2 l -0.6,-0.3 -0.7,-0.4 a 1.69,1.69 0 0 1 -0.7,-0.6 c -0.6,0.6 -0.8,0.6 -2.4,1.1 a 2.39,2.39 0 0 0 -0.7,0.3 l -0.4,0.2 c -0.3,0 -0.4,-0.4 -0.4,-1.4 a 9,9 0 0 1 0.2,-1.8 3.63,3.63 0 0 0 -1.1,-0.3 1.75,1.75 0 0 0 -0.5,0.1 h -0.1 c -0.1,0 -0.2,-0.1 -0.2,-0.3 a 4.08,4.08 0 0 1 0.2,-0.7 l 0.3,-0.8 a 2.17,2.17 0 0 1 0.8,-0.9 2.51,2.51 0 0 1 0.8,-0.5 l 1.2,-0.2 c 0.7,-0.1 1.1,-0.5 1.1,-1 0,-0.5 -0.3,-0.8 -1,-1 l -1.4,-0.5 a 4.88,4.88 0 0 1 -1.3,-0.6 c -0.8,-0.5 -0.9,-0.5 -1.1,-0.5 -0.2,0 -0.4,0.2 -0.4,0.6 a 0.92,0.92 0 0 0 0.9,1 0.37,0.37 0 0 0 0.3,-0.1 0.77,0.77 0 0 1 0.3,-0.1 0.22,0.22 0 0 1 0.2,0.2 V 30 L 29,30.5 a 5.8,5.8 0 0 1 -1,1.9 l -0.3,0.4 A 4.51,4.51 0 0 1 26,35.3 1.38,1.38 0 0 0 25.6,35.6 1.73,1.73 0 0 1 25.3,36 c -0.1,0.1 -0.3,0.4 -0.6,0.8 a 5,5 0 0 1 -0.8,0.7 q -0.6,0.45 -0.6,0.6 L 23,38.6 c -0.1,0.1 -0.2,0.2 -0.3,0.2 -0.3,0 -0.5,-0.3 -0.7,-0.8 -0.2,-0.5 -0.2,-0.5 -0.5,-0.5 a 1.76,1.76 0 0 0 -0.6,0.1 l -0.4,0.1 h -1.2 a 8.42,8.42 0 0 0 -1.8,0.3 0.49,0.49 0 0 1 -0.3,0.1 c -0.1,0 -0.1,0 -0.2,-0.2 a 0.37,0.37 0 0 1 -0.1,-0.3 5.7,5.7 0 0 1 1,-2.6 3,3 0 0 1 0.9,-1 1.47,1.47 0 0 0 -0.9,-1.1 l -0.5,-0.2 c -0.1,0 -0.1,-0.1 -0.1,-0.2 0,-0.1 0.3,-0.4 0.7,-0.6 a 4.46,4.46 0 0 1 1.8,-0.5 2.47,2.47 0 0 1 1.6,0.7 c 0.9,0.7 1.1,0.8 1.5,0.8 a 1.32,1.32 0 0 0 1.3,-1.3 3,3 0 0 0 -0.8,-1.7 4.18,4.18 0 0 1 -1.2,-2.6 3.31,3.31 0 0 1 0.4,-1.5 l 0.3,-0.5 A 0.37,0.37 0 0 0 23,25 c 0,-0.2 -0.2,-0.4 -0.6,-0.4 a 7,7 0 0 0 -2.3,0.8 1,1 0 0 0 -0.6,0.7 0.35,0.35 0 0 0 0.1,0.2 l 0.4,0.2 0.1,0.1 A 0.35,0.35 0 0 0 20,26.8 l -0.6,0.8 a 8.31,8.31 0 0 1 -1.3,1.4 0.75,0.75 0 0 0 -0.3,0.3 5.2,5.2 0 0 1 -0.3,0.5 4.62,4.62 0 0 1 -1.4,1.4 c -0.2,0.2 -0.4,0.3 -0.4,0.4 0,0.1 -0.1,0.2 -0.3,0.4 a 5.74,5.74 0 0 1 -0.4,0.7 4.87,4.87 0 0 1 -0.8,1 l -0.9,0.9 a 5.33,5.33 0 0 0 -0.9,2 c -0.2,0.7 -0.4,1.1 -0.5,1.1 -0.1,0 -0.1,-0.1 -0.3,-0.2 -0.6,-0.7 -1.2,-1.2 -1.5,-1.2 -0.1,0 -0.2,0.1 -0.4,0.2 A 1.9,1.9 0 0 1 8.8,36.8 L 7.6,37 A 2.69,2.69 0 0 0 5.8,38 C 5.7,38.1 5.6,38.2 5.5,38.2 5.4,38.2 5.3,38 5.3,37.8 v -0.3 l 0.2,-0.9 a 14.24,14.24 0 0 1 0.6,-2.1 l 0.5,-1 A 1.69,1.69 0 0 0 6.8,33 1.82,1.82 0 0 0 5.1,31.5 c -0.2,0 -0.3,-0.1 -0.3,-0.2 0,-0.1 0.3,-0.5 0.6,-0.8 a 3.67,3.67 0 0 1 2,-0.8 3.35,3.35 0 0 1 1.4,0.4 l 0.7,0.3 a 2.54,2.54 0 0 0 0.7,0.2 c 0.7,0 1.5,-0.7 2.4,-2.2 a 3.55,3.55 0 0 0 0.6,-1.6 c 0,-0.8 -0.4,-1.3 -1,-1.3 a 2,2 0 0 0 -1.4,0.6 1.59,1.59 0 0 0 -0.5,1 v 0.5 c 0,0.3 -0.1,0.5 -0.3,0.5 -0.2,0 -0.7,-0.4 -2,-2 A 4.13,4.13 0 0 1 6.8,23.3 c -1.1,-1.4 -1.4,-2 -1.4,-3 V 19.6 A 2.92,2.92 0 0 1 4.4,17.4 1.2,1.2 0 0 1 4.6,16.6 3.29,3.29 0 0 1 4,15.4 L 3.8,14.7 A 3.34,3.34 0 0 0 3.3,13.5 C 3,13.1 3,13 3,12.9 3,12.5 3.3,12.4 4.4,12.1 A 5.64,5.64 0 0 0 4.3,11.4 2.81,2.81 0 0 1 4.4,10.6 L 4.6,9.4 A 4.59,4.59 0 0 0 4.7,8.4 2.68,2.68 0 0 0 4.5,7.4 1.54,1.54 0 0 0 4.2,6.7 L 4,6.3 a 0.22,0.22 0 0 1 0.2,-0.2 5,5 0 0 1 2,1.2 c 1.8,1.5 2.2,2.1 2.5,4 a 1.49,1.49 0 0 0 0.1,0.6 2.67,2.67 0 0 1 1.3,2.3 4.2,4.2 0 0 1 -0.6,2.1 l -0.6,1 a 2,2 0 0 0 -0.3,1.1 3.81,3.81 0 0 0 0.6,1.9 c 0.5,0.9 0.9,1.2 1.4,1.2 0.8,0 1.6,-1.5 1.6,-3.1 v -0.8 a 4.91,4.91 0 0 1 0.1,-1.1 4.4,4.4 0 0 0 0.1,-0.9 V 14.3 A 0.86,0.86 0 0 0 12.1,13.7 L 11.4,12.9 A 5.31,5.31 0 0 1 9.8,10 1.61,1.61 0 0 1 11.4,8.3 2,2 0 0 1 12.1,8.4 V 8.2 c 0,-1.4 0.3,-2.5 0.7,-2.5 H 13 l 0.6,0.5 0.7,0.4 0.2,0.2 c 0,-0.4 0,-0.4 0.4,-0.9 a 5.92,5.92 0 0 0 0.4,-0.6 0.91,0.91 0 0 0 0.3,-0.5 c 0.1,-0.1 0.1,-0.2 0.2,-0.3 0.1,-0.1 0.2,-0.2 0.3,-0.2 0.1,0 0.2,0.1 0.3,0.5 0.1,0.2 0.1,0.3 0.7,0.8 L 17.5,6 c 0.1,0.1 0.1,0.3 0.3,0.6 0,0.1 0.1,0.1 0.1,0.3 A 3.39,3.39 0 0 1 18.5,6.3 L 19,6 C 19.2,5.9 19.3,5.8 19.4,5.8 L 19.6,6 c 0.1,0.1 0.1,0.3 0.3,0.5 a 3.34,3.34 0 0 1 0.5,1.2 v 0.7 c 1.1,0.3 1.4,0.9 1.4,2 a 4,4 0 0 1 -1.3,2.7 c -0.6,0.7 -0.6,0.8 -0.6,1.2 0,2.4 1.7,3.7 4.6,3.8 h 2.1 a 10.3,10.3 0 0 1 3.5,0.6 8.19,8.19 0 0 0 2.4,0.6 0.6,0.6 0 0 0 0.4,-0.1 c 0.1,-0.1 0.2,-0.2 0.2,-0.3 0,-0.4 -0.8,-0.8 -3.4,-1.5 -5.3,-1.5 -7.5,-3.6 -7.5,-7.1 A 4.9,4.9 0 0 1 27.4,5.5 11.27,11.27 0 0 1 30.6,6 l 1.3,0.5 a 1.7,1.7 0 0 0 0.7,0.1 C 33,6.6 33.3,6.2 33.3,5.5 33.3,5.1 33.4,5 33.7,5 34,5 34.6,5.5 35.2,6.2 A 4.57,4.57 0 0 1 36.1,8.3 1.88,1.88 0 0 1 35,10 3.11,3.11 0 0 1 32.2,11.6 C 31.3,11.6 30,11.1 27.8,9.8 27,9.4 26.7,9.2 26.3,9.2 c -0.6,0 -0.9,0.3 -0.9,0.8 0,0.5 0.4,0.8 1.3,1.1 a 4.77,4.77 0 0 1 2.3,1.3 8.07,8.07 0 0 1 3.4,1.3 c 2.8,0.9 4.6,2.8 4.6,5 a 3.47,3.47 0 0 1 -3.5,3.7 1.69,1.69 0 0 1 -1.7,0.2"
       id="path359" />
    <path
       class="cls-6"
       d="M 35,36.7 A 2.81,2.81 0 0 1 34.9,35.9 V 35.6 L 35,35.1 v -0.4 a 2.51,2.51 0 0 0 -0.2,-1 L 34.4,33.2 34.1,32.6 C 34.1,32.5 34,32.4 34,32.3 a 0.22,0.22 0 0 1 0.2,-0.2 c 0.1,0 0.1,0 0.4,0.2 a 0.37,0.37 0 0 0 0.3,0.1 q 0.3,0 0.3,-0.9 A 2,2 0 0 0 35,30.4 L 34.5,29.9 34.1,29.5 C 34,29.4 33.9,29.3 33.9,29.2 33.9,29.1 34,29 34.2,29 a 2.54,2.54 0 0 1 0.7,0.2 H 35 c 0.1,0 0.2,-0.1 0.2,-0.3 v -0.1 l -0.1,-0.7 -0.2,-0.7 c -0.1,-0.2 -0.1,-0.3 -0.2,-0.3 h -0.1 l -0.8,0.2 h -0.1 a 2.77,2.77 0 0 1 -2.5,-2 l -0.6,-2.1 a 5,5 0 0 0 -1.5,-2 1.55,1.55 0 0 0 -0.6,-0.3 l -0.6,-0.1 a 0.22,0.22 0 0 1 -0.2,-0.2 c 0,-0.1 0.1,-0.2 0.4,-0.2 l 1.1,0.1 a 7.93,7.93 0 0 1 1.7,0.4 8.17,8.17 0 0 0 2.2,0.5 2.3,2.3 0 0 0 2.6,-2.3 3.89,3.89 0 0 0 -1.3,-2.8 3,3 0 0 0 -1.1,-0.7 0.22,0.22 0 0 0 -0.2,0.2 v 0.4 0 c 0,0.2 -0.1,0.3 -0.2,0.3 -0.1,0 -0.3,-0.2 -0.6,-0.6 a 3,3 0 0 0 -2.6,-2 c -0.2,0 -0.3,0.1 -0.3,0.2 0,0.1 0.1,0.2 0.2,0.5 l 0.3,0.6 a 0.77,0.77 0 0 1 0.1,0.3 l -0.1,0.1 a 0.68,0.68 0 0 1 -0.5,-0.3 l -0.5,-0.5 -0.4,-0.6 a 2.92,2.92 0 0 0 -1.3,-1.1 5.44,5.44 0 0 0 -0.8,-0.4 0.6,0.6 0 0 0 -0.4,-0.1 0.22,0.22 0 0 0 -0.2,0.2 0.37,0.37 0 0 0 0.1,0.3 c 0.2,0.4 0.3,0.5 0.3,0.6 A 0.22,0.22 0 0 1 26,13.9 c -0.2,0 -0.8,-0.5 -1.2,-1.2 A 3.23,3.23 0 0 1 24.2,10.9 2.31,2.31 0 0 1 26.6,8.5 4.88,4.88 0 0 1 29,9.3 l 1.5,0.9 a 4.26,4.26 0 0 0 1.8,0.6 3.71,3.71 0 0 0 0.9,-0.2 0.76,0.76 0 0 0 0.4,-0.2 c 0.1,-0.1 0.2,-0.1 0.2,-0.2 0,-0.1 0,-0.1 -0.1,-0.1 L 33.5,10 32.8,9.9 A 2.3,2.3 0 0 1 31.9,9.6 L 30.3,8.8 C 29.8,8.5 29.4,8.3 29.2,8.2 29,8.1 28.8,8 28.8,7.9 c 0,-0.1 0,-0.1 0.1,-0.1 a 0.37,0.37 0 0 1 0.3,0.1 2.38,2.38 0 0 0 1.2,0.4 l 1.4,0.5 A 10.73,10.73 0 0 0 33.9,9.2 1.11,1.11 0 0 0 35,8.1 2.38,2.38 0 0 0 34.4,6.7 L 34.2,6.5 C 34.1,6.5 34,6.6 34,6.8 v 0.3 l 0.1,0.4 A 0.67,0.67 0 0 1 33.5,8.2 1.09,1.09 0 0 1 33,8.1 L 30.9,7.4 a 9.51,9.51 0 0 0 -3.4,-0.7 4.11,4.11 0 0 0 -4.4,4 c 0,2.5 1.8,4.2 6.2,5.7 4.4,1.5 5,1.9 5,3 a 1.41,1.41 0 0 1 -1.4,1.2 2,2 0 0 1 -0.8,-0.1 C 32,20.5 31.2,20.3 29.9,20 a 16.84,16.84 0 0 0 -4,-0.5 c -3.1,0 -4.9,0.6 -6.4,2 -0.4,0.4 -0.5,0.4 -0.9,0.4 h -0.7 a 1,1 0 0 0 -0.9,0.6 4.54,4.54 0 0 0 -0.5,0.9 0.52,0.52 0 0 1 -0.4,0.2 c -0.3,0 -0.5,-0.2 -0.8,-1 a 3.59,3.59 0 0 0 -0.7,-1 L 14,21 13.8,20.8 a 0.37,0.37 0 0 1 0.1,-0.3 4.45,4.45 0 0 0 0.5,-0.8 c 0.1,-0.4 0.1,-0.4 0.3,-0.4 0.2,0 0.3,0.2 0.3,0.9 a 2.3,2.3 0 0 0 0.3,0.9 l 0.4,0.8 c 0,0.1 0.2,0.2 0.3,0.2 0.3,0 0.8,-0.8 0.9,-1.6 0.1,-0.8 0.2,-0.9 0.3,-0.9 0.1,0 0.1,0 0.1,0.1 l 0.3,0.6 a 1.76,1.76 0 0 0 0.4,0.5 c 0.2,0.1 0.3,0.2 0.4,0.2 v 0 c 0.3,0 0.3,-0.2 0.4,-0.8 v -0.3 l -0.1,-0.5 v -0.3 c 0,-0.2 0.1,-0.3 0.2,-0.3 0.1,0 0.2,0 0.2,0.1 l 0.3,0.3 a 0.86,0.86 0 0 0 0.6,0.3 c 0.3,0 0.4,-0.1 0.4,-0.3 0,-0.2 -0.1,-0.3 -0.3,-0.7 l -0.2,-0.4 c -0.3,-0.5 -0.5,-0.7 -0.7,-0.7 h -0.3 l -0.4,0.2 c -0.1,0 -0.2,0.1 -0.3,0.1 a 0.1,0.1 0 0 1 -0.1,-0.1 3.62,3.62 0 0 1 0.5,-1.3 5.92,5.92 0 0 0 0.5,-2.5 c 0.1,-1.7 0.3,-2.8 0.6,-2.8 0.3,0 0.2,0.1 0.2,0.5 v 0.7 a 1.21,1.21 0 0 0 0.1,0.5 c 0.3,0 0.6,-0.4 0.9,-1.1 a 2.54,2.54 0 0 0 0.2,-0.7 V 10.8 L 20.5,9.6 19.9,9.4 A 0.35,0.35 0 0 1 19.7,9.3 V 8.5 L 19.6,8 19.5,7.7 19.3,7.3 A 3.65,3.65 0 0 0 18,8.3 C 17.7,8.6 17.6,8.8 17.5,8.8 A 0.22,0.22 0 0 1 17.3,8.6 1.09,1.09 0 0 1 17.4,8.1 V 7.9 A 2.11,2.11 0 0 0 16.3,6.1 l -0.2,0.3 -0.2,0.3 -0.4,0.5 a 3.33,3.33 0 0 0 -0.3,0.6 c 0,0.1 -0.1,0.3 -0.1,0.4 v 0.2 c 0,0.3 0,0.3 -0.1,0.3 H 14.9 L 14.7,8.4 14.3,8 13.8,7.6 13.5,7.4 a 0.37,0.37 0 0 0 -0.1,0.3 1.69,1.69 0 0 0 -0.2,0.5 v 1.1 c 0,0.3 -0.1,0.4 -0.2,0.4 -0.1,0 -0.2,-0.1 -0.4,-0.2 A 0.75,0.75 0 0 0 12.1,9.4 c -0.5,0 -0.8,0.3 -0.8,0.9 a 3.1,3.1 0 0 0 0.5,1.7 l 0.4,0.5 c 0.1,0.1 0.3,0.3 0.3,0.2 L 12.6,12 12.5,11.5 v -0.2 c 0,-0.2 0.1,-0.3 0.2,-0.3 0.1,0 0.3,0.2 0.4,0.7 l 0.3,1.2 0.3,1.5 a 9.29,9.29 0 0 0 0.4,1.3 c 0.3,0.6 0.4,1 0.5,1.1 0.4,0.5 0.4,0.5 0.4,0.6 a 0.1,0.1 0 0 1 -0.1,0.1 0.37,0.37 0 0 1 -0.3,-0.1 c -0.1,-0.1 -0.2,-0.1 -0.4,-0.1 h -0.3 c -0.5,0 -0.6,0.4 -0.6,2.6 a 13.9,13.9 0 0 0 0.6,3.9 l 0.7,1.7 a 2.35,2.35 0 0 1 0.2,0.8 c 0,2.3 -3.1,6 -6.5,7.7 A 2.58,2.58 0 0 0 6.5,36.6 V 37 a 1.86,1.86 0 0 1 1.1,-0.4 c 1,-0.2 1.1,-0.4 1.3,-0.8 L 9,35.4 c 0,-0.2 0.1,-0.2 0.9,-0.6 a 1.08,1.08 0 0 0 0.5,-0.4 c 0.2,-0.3 0.3,-0.4 0.4,-0.4 0.1,0 0.1,0 0.1,0.1 v 0.1 l -0.3,0.9 v 0.2 a 1.82,1.82 0 0 0 1.1,1.6 2.83,2.83 0 0 1 0.4,-1.3 l 0.6,-0.9 a 2.42,2.42 0 0 0 0.3,-1.4 3.08,3.08 0 0 0 -0.1,-1 V 32 c 0,-0.2 0.1,-0.3 0.2,-0.3 0.1,0 0.2,0 0.2,0.1 l 0.1,0.6 c 0,0.1 0.2,0.2 0.3,0.2 0.3,0 0.7,-0.4 1.1,-1.1 A 1.34,1.34 0 0 0 15,30.7 v -0.4 l -0.1,-0.5 v -0.1 c 0,-0.2 0.1,-0.4 0.3,-0.4 0.2,0 0.1,0 0.1,0.1 l 0.2,0.7 c 0.1,0.2 0.2,0.4 0.4,0.4 0.2,0 0.6,-0.4 0.8,-0.8 A 2.77,2.77 0 0 0 17,28.4 c 0,-0.7 0.1,-0.9 0.3,-0.9 0.2,0 0.1,0 0.2,0.1 l 0.1,0.4 c 0,0.2 0.1,0.3 0.2,0.3 a 1.91,1.91 0 0 0 0.7,-0.8 0.37,0.37 0 0 0 0.1,-0.3 0.54,0.54 0 0 0 -0.3,-0.4 C 18,26.5 17.9,26.5 17.9,26.1 a 1.86,1.86 0 0 1 0.4,-1.1 3,3 0 0 0 0.4,-0.8 c 0.4,-0.8 0.5,-1 0.7,-1 0.2,0 0.2,0.1 0.2,0.3 a 0.37,0.37 0 0 1 -0.1,0.3 0.76,0.76 0 0 0 -0.1,0.4 0.22,0.22 0 0 0 0.2,0.2 3.93,3.93 0 0 0 0.6,-0.2 4.13,4.13 0 0 1 0.9,-0.4 l 1.1,-0.4 a 1.85,1.85 0 0 1 1.2,0 2.64,2.64 0 0 0 0.7,0.1 0.47,0.47 0 0 0 0.5,-0.5 2.26,2.26 0 0 0 -0.5,-1 C 24,21.9 23.9,21.8 23.9,21.7 v -0.1 c 0,-0.1 0.1,-0.1 0.2,-0.1 0.1,0 0.7,0.5 1.2,1.3 2.8,4.3 3.7,5.4 5.6,6 1.9,0.6 2.4,1 2.4,2.1 a 4.28,4.28 0 0 1 -1,2.3 c -1.4,2 -1.7,2.7 -1.7,4 v 0.2 c 0.2,-0.1 0.3,-0.1 0.4,-0.2 0.3,-0.1 0.4,-0.2 0.5,-0.2 l 0.8,-0.2 c 0.2,0 0.5,-0.4 0.5,-0.7 V 36 L 32.7,35.3 V 35.2 A 1.08,1.08 0 0 1 33,34.5 c 0.1,0 0.1,-0.1 0.2,-0.1 0.1,0 0.2,0.1 0.3,0.2 l 0.5,1.1 c 0.1,0.4 0.3,0.7 1,1"
       id="path361" />
    <path
       class="cls-6"
       d="M 9.2,13.4 C 9,13.4 8.8,13.6 8.8,14 l -0.1,0.6 a 3.75,3.75 0 0 0 -0.1,0.8 c 0,0.5 0.1,0.8 0.3,0.8 0.2,0 0.5,-0.4 0.7,-0.8 A 2,2 0 0 0 9.7,14.7 C 9.7,14.5 9.6,14.2 9.6,14 9.5,13.6 9.3,13.4 9.2,13.4"
       id="path363" />
    <path
       class="cls-6"
       d="M 6.5,8.7 6.9,9.1 A 5.1,5.1 0 0 1 8,12.8 14.89,14.89 0 0 1 7.9,14.5 c 0,0.5 -0.1,1 -0.1,1.3 0,4 1.3,7 3,7 0.5,0 0.9,-0.3 1.4,-1 0.1,-0.1 0.2,-0.2 0.3,-0.2 0.1,0 0.2,0.1 0.2,0.3 l 0.1,0.7 0.1,0.6 0.1,0.7 0.1,0.6 v 0.1 c 0,0.2 -0.1,0.3 -0.2,0.3 L 12.3,25 a 1.8,1.8 0 0 0 -0.9,0.4 c -0.5,0.3 -0.8,0.5 -0.8,0.6 l -0.4,0.7 A 0.22,0.22 0 0 1 10,26.9 C 9.8,26.9 9.5,26.6 9.2,26 A 4.17,4.17 0 0 1 8.7,25 c 0,-0.1 0.1,-0.1 0.3,-0.1 h 1.1 a 0.22,0.22 0 0 0 0.2,-0.2 0.35,0.35 0 0 0 -0.1,-0.2 L 8.8,23.9 A 2.89,2.89 0 0 1 7.7,22.8 5.2,5.2 0 0 1 7.1,21.4 0.27,0.27 0 0 1 7.4,21.1 c 0.1,0 0.1,0 0.2,0.1 A 0.6,0.6 0 0 0 8,21.3 0.22,0.22 0 0 0 8.2,21.1 q 0,-0.15 -0.3,-0.3 A 4,4 0 0 1 6,18.1 c 0,-0.2 0.1,-0.4 0.2,-0.4 h 0.2 l 0.4,0.1 v 0 C 7,17.8 7.1,17.7 7.1,17.6 7.1,17.5 7,17.4 6.8,17.3 A 5.2,5.2 0 0 0 6.3,17 1,1 0 0 1 5.9,16.5 8.12,8.12 0 0 1 5.4,15.5 L 5,14.6 a 5.2,5.2 0 0 1 -0.3,-0.5 1.24,1.24 0 0 1 -0.2,-0.3 1.93,1.93 0 0 1 1,-0.3 c 0.4,0 0.7,0.3 1,1.1 0.2,0.5 0.4,0.8 0.5,0.8 0.1,0 0.1,-0.1 0.1,-0.4 A 3.75,3.75 0 0 0 7,14 2,2 0 0 1 6.9,13.3 L 6.8,12.9 6.4,12.7 C 6.3,12.7 6.2,12.5 6.1,12.4 A 1.33,1.33 0 0 1 5.8,11.7 1.49,1.49 0 0 1 5.9,11.1 9.62,9.62 0 0 0 6.3,9 V 8.7 Z"
       id="path365" />
    <path
       class="cls-6"
       d="M 10.3,31.9 A 6.37,6.37 0 0 1 9.4,31.7 1.55,1.55 0 0 1 8.8,31.4 3.46,3.46 0 0 0 7.6,31.1 2.11,2.11 0 0 0 6.3,31.6 l 0.3,0.2 0.6,0.4 0.6,0.5 c 0.2,0.1 0.3,0.2 0.5,0.2 a 2.7,2.7 0 0 0 2,-1"
       id="path367" />
    <path
       class="cls-6"
       d="m 22.7,37.7 a 2.41,2.41 0 0 1 0.6,-0.8 c 0.9,-0.8 1.3,-1.3 1.3,-1.8 v -0.7 c 0,-0.4 0.1,-0.5 0.3,-0.5 0.2,0 0.2,0 0.2,0.1 l 0.2,0.4 c 0,0.1 0.1,0.1 0.3,0.1 0.2,0 0.3,-0.1 0.5,-0.4 l 0.3,-0.4 a 0.73,0.73 0 0 0 0.2,-0.6 0.76,0.76 0 0 0 -0.1,-0.4 c 0,-0.1 -0.1,-0.2 -0.2,-0.5 a 1.09,1.09 0 0 1 -0.1,-0.5 0.27,0.27 0 0 1 0.3,-0.3 c 0.1,0 0.2,0 0.2,0.1 l 0.3,0.3 c 0.1,0.1 0.1,0.1 0.2,0.1 a 0.32,0.32 0 0 0 0.3,-0.3 l 0.3,-0.5 a 0.37,0.37 0 0 0 0.1,-0.3 q 0,-0.15 -0.3,-0.3 l -0.4,-0.2 a 2.5,2.5 0 0 1 -1,-2.1 0.37,0.37 0 0 1 0.1,-0.3 l 0.2,-0.5 a 0.9,0.9 0 0 0 0.1,-0.5 1.93,1.93 0 0 0 -0.3,-1 C 26,25.5 25.9,25.3 25.9,25.2 25.7,24.7 25.6,24.6 25.5,24.6 h -0.2 l -0.2,0.1 -0.4,0.2 -0.4,0.5 -0.4,0.2 c -0.3,0.1 -0.5,0.7 -0.5,1.2 0,0.8 0.1,1.1 1.2,3 a 4.63,4.63 0 0 1 0.7,1.8 c 0,1.3 -1.2,2.2 -3.5,2.8 l -1.5,0.4 a 2.69,2.69 0 0 0 -2,2.3 2.42,2.42 0 0 1 1.4,-0.3 h 0.6 a 0.74,0.74 0 0 0 0.8,-0.4 2.44,2.44 0 0 1 1.1,-0.9 l 0.5,-0.2 0.4,-0.2 h 0.1 c 0.1,0 0.2,0 0.2,0.1 a 0.91,0.91 0 0 1 -0.3,0.5 1.58,1.58 0 0 0 -0.5,1.2 c -0.3,0.3 -0.2,0.4 0.1,0.8"
       id="path369" />
    <path
       class="cls-6"
       d="m 18.6,32.7 a 4.3,4.3 0 0 1 1,0.9 c 0.3,0.4 0.4,0.5 0.7,0.5 A 1.09,1.09 0 0 0 20.8,34 l 0.3,-0.1 c 0.5,-0.1 0.7,-0.2 0.7,-0.3 0,-0.1 -0.1,-0.2 -0.2,-0.3 L 21.2,33 20.8,32.7 a 1.82,1.82 0 0 0 -1.1,-0.4 2.43,2.43 0 0 0 -1.1,0.4"
       id="path371" />
    <path
       class="cls-6"
       d="m 29,34.5 h 0.9 a 1.41,1.41 0 0 0 1.4,-1.2 Q 31.3,33 30.7,33 c -0.8,-0.2 -1.3,0.3 -1.7,1.5"
       id="path373" />
    <path
       class="cls-3"
       d="m 17.1,12.3 c 0,0.3 0.2,0.5 0.3,0.5 0.1,0 0.3,-0.4 0.6,-0.9 A 5.09,5.09 0 0 0 18.9,10 0.22,0.22 0 0 0 18.7,9.8 v 0 l -0.4,0.3 a 9.05,9.05 0 0 1 -1.1,0.6 c -0.4,0.1 -0.5,0.3 -0.5,0.5 v 0.3 l 0.2,0.5 z"
       id="path375" />
    <path
       class="cls-3"
       d="m 15.1,10.6 0.5,0.3 c 0.1,0.1 0.2,0.2 0.2,0.3 v 0.2 a 1.58,1.58 0 0 0 0,0.7 0.55,0.55 0 0 1 -0.6,0.6 c -0.1,0 -0.1,-0.1 -0.3,-0.4 L 14.2,11.5 A 3.17,3.17 0 0 1 13.7,10.1 V 10 c 0,-0.2 0.1,-0.2 0.2,-0.2 0.1,0 0.2,0.1 0.4,0.2 z"
       id="path377" />
    <path
       class="cls-3"
       d="m 16.4,14 h -0.6 a 1.09,1.09 0 0 0 -0.4,-0.2 0.75,0.75 0 0 0 -0.5,-0.1 0.46,0.46 0 0 0 -0.5,0.4 3.77,3.77 0 0 0 0.4,1.4 l 0.4,1 c 0.4,0.9 0.7,1.3 1.2,1.3 0.5,0 0.5,-0.4 0.8,-1.1 0.6,-1.6 1,-1.8 1,-2.4 0,-0.4 -0.1,-0.5 -0.4,-0.5 L 17.5,13.7 17,14 Z"
       id="path379" />
    <path
       class="cls-6"
       d="m 16.3,14.9 h -0.4 c -0.1,0 -0.1,0 -0.2,0.1 l -0.1,0.2 0.2,0.8 0.1,0.7 c 0.1,0.4 0.2,0.5 0.5,0.5 0.3,0 0.5,-0.2 0.5,-0.6 L 17,15.9 a 1.73,1.73 0 0 1 0.1,-0.7 c 0,-0.1 0,-0.1 -0.1,-0.2 a 0.35,0.35 0 0 0 -0.2,-0.1 z"
       id="path381" />
    <path
       class="cls-3"
       d="m 91.6,22.6 0.1,0.5 a 6.21,6.21 0 0 0 0.3,1 c 0.4,1.8 0.7,2.3 1.6,2.3 a 1.23,1.23 0 0 0 1.1,-0.7 l 0.2,-0.6 c 0,-0.1 0.2,-0.2 0.3,-0.2 q 0.45,0 0.6,1.2 c 0,0.3 0.1,0.8 0.2,1.6 a 7.57,7.57 0 0 1 0.1,1.5 1.64,1.64 0 0 1 -0.2,0.9 l 0.1,0.4 a 6.25,6.25 0 0 1 0.1,1.2 3.85,3.85 0 0 1 -0.4,2.3 6.53,6.53 0 0 1 0.2,1.1 5.38,5.38 0 0 1 -0.1,1.1 l -0.1,1 v 0.6 a 0.76,0.76 0 0 1 0.1,0.4 0.35,0.35 0 0 1 -0.1,0.2 l -0.6,-0.3 -0.7,-0.4 a 1.69,1.69 0 0 1 -0.7,-0.6 2.85,2.85 0 0 1 -1.4,0.8 c -1.1,0.3 -1.5,0.4 -1.7,0.6 l -0.4,0.2 c -0.2,0 -0.4,-0.5 -0.4,-1.2 a 8.09,8.09 0 0 1 0.2,-2 4.05,4.05 0 0 0 -1.2,-0.3 1.75,1.75 0 0 0 -0.5,0.1 h -0.1 c -0.1,0 -0.1,-0.1 -0.1,-0.3 a 4.29,4.29 0 0 1 0.5,-1.5 3,3 0 0 1 1.6,-1.4 l 1.2,-0.2 c 0.7,-0.1 1.1,-0.5 1.1,-1 0,-0.5 -0.3,-0.8 -1,-1 L 90.2,29.4 C 89.7,29.2 89.3,29 88.9,28.8 88.5,28.6 88.3,28.5 88.2,28.4 a 0.37,0.37 0 0 0 -0.3,-0.1 0.47,0.47 0 0 0 -0.5,0.5 1,1 0 0 0 0.9,1 0.37,0.37 0 0 0 0.3,-0.1 0.37,0.37 0 0 1 0.3,-0.1 0.32,0.32 0 0 1 0.3,0.3 4.35,4.35 0 0 1 -0.7,2 l -0.4,0.5 -0.3,0.4 a 4.21,4.21 0 0 1 -1.7,2.5 1.38,1.38 0 0 0 -0.4,0.3 1.73,1.73 0 0 1 -0.3,0.4 c -0.1,0.1 -0.3,0.4 -0.6,0.8 A 5,5 0 0 1 84,37.5 q -0.6,0.45 -0.6,0.6 l -0.3,0.5 C 83,38.7 83,38.8 82.8,38.8 82.6,38.8 82.3,38.5 82.1,38 81.9,37.5 81.9,37.5 81.6,37.5 A 1.76,1.76 0 0 0 81,37.6 l -0.4,0.1 h -1.1 a 4.84,4.84 0 0 0 -1.8,0.3 0.49,0.49 0 0 1 -0.3,0.1 c -0.2,0 -0.2,-0.2 -0.2,-0.5 A 6.17,6.17 0 0 1 79,34 c -0.2,-0.6 -0.5,-1 -0.9,-1.1 a 3.22,3.22 0 0 1 -0.6,-0.2 c -0.1,0 -0.1,-0.1 -0.1,-0.2 0,-0.1 0.2,-0.4 0.7,-0.6 a 3.75,3.75 0 0 1 1.7,-0.5 2.51,2.51 0 0 1 1.7,0.7 c 0.9,0.7 1.1,0.8 1.5,0.8 A 1.32,1.32 0 0 0 84.3,31.6 3,3 0 0 0 83.5,29.9 4,4 0 0 1 82.3,27.2 3,3 0 0 1 83,25.3 0.49,0.49 0 0 0 83.1,25 c 0,-0.2 -0.3,-0.3 -0.6,-0.3 a 2.69,2.69 0 0 0 -1.3,0.4 c -1,0.4 -1.5,0.9 -1.5,1.1 0,0.2 0.1,0.2 0.2,0.3 l 0.3,0.2 0.1,0.1 -0.1,0.2 a 3.73,3.73 0 0 0 -0.6,0.8 8.94,8.94 0 0 1 -1.3,1.4 Q 78,29.35 78,29.5 L 77.7,30 a 3.74,3.74 0 0 1 -1.4,1.4 c -0.2,0.2 -0.4,0.3 -0.4,0.4 a 1.38,1.38 0 0 0 -0.3,0.4 7.35,7.35 0 0 1 -1.2,1.7 l -0.9,0.9 a 7.78,7.78 0 0 0 -0.9,2 c -0.3,0.8 -0.4,1.1 -0.6,1.1 -0.2,0 -0.1,-0.1 -0.2,-0.2 -0.6,-0.7 -1.2,-1.2 -1.5,-1.2 -0.1,0 -0.2,0.1 -0.4,0.2 A 1.9,1.9 0 0 1 69,37 l -1.2,0.2 a 2.3,2.3 0 0 0 -1.8,1 c -0.1,0.1 -0.2,0.2 -0.3,0.2 -0.1,0 -0.2,-0.2 -0.2,-0.4 v -0.3 a 6.59,6.59 0 0 0 0.2,-0.9 11.29,11.29 0 0 1 0.6,-2.1 l 0.6,-1 a 1.69,1.69 0 0 0 0.2,-0.5 c 0,-0.7 -0.7,-1.3 -1.7,-1.5 -0.2,0 -0.3,-0.1 -0.3,-0.2 0,-0.1 0.3,-0.4 0.6,-0.7 a 2.95,2.95 0 0 1 3.5,-0.4 l 0.7,0.3 a 2.54,2.54 0 0 0 0.7,0.2 c 0.7,0 1.5,-0.7 2.4,-2.2 A 3.49,3.49 0 0 0 73.6,27 c 0,-0.8 -0.4,-1.3 -1,-1.3 a 2,2 0 0 0 -1.4,0.6 1.87,1.87 0 0 0 -0.5,1 v 0.5 c 0,0.3 -0.1,0.4 -0.3,0.4 -0.2,0 -0.5,-0.2 -1.1,-0.9 -0.2,-0.3 -0.5,-0.6 -0.9,-1.1 a 3.39,3.39 0 0 1 -1.2,-2.8 c -1.1,-1.4 -1.4,-2.2 -1.4,-3 v -0.7 a 2.66,2.66 0 0 1 -0.9,-2.2 1.49,1.49 0 0 1 0.2,-0.9 3.29,3.29 0 0 1 -0.6,-1.2 l -0.2,-0.7 a 4.33,4.33 0 0 0 -0.5,-1.2 c -0.3,-0.4 -0.3,-0.5 -0.3,-0.6 0,-0.3 0.3,-0.5 1.1,-0.8 L 64.9,12 a 5.64,5.64 0 0 0 -0.1,-0.7 2.81,2.81 0 0 1 0.1,-0.8 L 65.1,9.3 A 4.91,4.91 0 0 0 65.2,8.2 2.17,2.17 0 0 0 65,7.2 2.39,2.39 0 0 0 64.7,6.5 C 64.6,6.3 64.5,6.2 64.5,6.1 64.5,6 64.6,5.9 64.8,5.9 a 0.37,0.37 0 0 1 0.3,0.1 10.67,10.67 0 0 1 3.1,2.5 4.61,4.61 0 0 1 1.1,3.3 2.61,2.61 0 0 1 1.3,2.4 3.81,3.81 0 0 1 -0.6,1.9 4.43,4.43 0 0 0 -0.6,1 2,2 0 0 0 -0.3,1.1 4.13,4.13 0 0 0 0.6,1.9 c 0.5,0.8 0.9,1.2 1.4,1.2 0.8,0 1.6,-1.5 1.6,-3.1 V 17 l 0.1,-0.8 0.1,-0.9 0.1,-0.8 v -0.4 c 0,-0.3 -0.1,-0.4 -1.1,-1.5 A 4.65,4.65 0 0 1 70.3,9.5 1.58,1.58 0 0 1 71.9,7.9 2,2 0 0 1 72.6,8 V 6.9 L 72.8,6.1 C 73,5.4 73,5.3 73.3,5.3 h 0.2 l 0.6,0.5 0.7,0.4 0.2,0.2 C 75,6 75.1,5.9 75.4,5.5 a 2.09,2.09 0 0 0 0.4,-0.6 l 0.3,-0.5 0.2,-0.3 c 0.1,-0.2 0.2,-0.2 0.3,-0.2 0.1,0 0.1,0.1 0.2,0.5 a 0.54,0.54 0 0 0 0.3,0.4 l 0.4,0.4 a 2.33,2.33 0 0 1 0.7,1.3 l 0.6,-0.6 0.5,-0.3 a 1.24,1.24 0 0 0 0.3,-0.2 0.35,0.35 0 0 1 0.1,0.2 c 0.1,0.2 0.2,0.3 0.3,0.5 0.4,0.7 0.4,0.8 0.4,1.2 V 8 a 1.74,1.74 0 0 1 1.4,2 4.09,4.09 0 0 1 -1.2,2.7 c -0.5,0.7 -0.6,0.9 -0.6,1.4 0,2.3 1.7,3.6 4.6,3.7 h 2.1 a 10.3,10.3 0 0 1 3.5,0.6 8.19,8.19 0 0 0 2.4,0.6 c 0.3,0 0.6,-0.2 0.6,-0.4 0,-0.5 -0.8,-0.8 -3.4,-1.6 -5.3,-1.5 -7.5,-3.6 -7.5,-7.1 a 5,5 0 0 1 5.2,-4.8 11.27,11.27 0 0 1 3.2,0.5 L 92,6.1 a 1.7,1.7 0 0 0 0.7,0.1 c 0.5,0 0.6,-0.3 0.7,-1.1 0,-0.4 0.1,-0.5 0.4,-0.5 A 2.85,2.85 0 0 1 95.3,5.8 4.26,4.26 0 0 1 96.1,7.9 1.82,1.82 0 0 1 95,9.5 3.11,3.11 0 0 1 92.2,11.1 10,10 0 0 1 87.8,9.3 2.64,2.64 0 0 0 86.3,8.7 c -0.6,0 -0.9,0.3 -0.9,0.8 0,0.5 0.3,0.8 1.3,1.1 1.5,0.5 1.8,0.7 2.3,1.3 a 8.07,8.07 0 0 1 3.4,1.3 c 2.9,0.9 4.6,2.7 4.6,5.1 a 3.36,3.36 0 0 1 -3.4,3.6 c -0.9,0.9 -1.2,0.9 -2,0.7"
       id="path383" />
    <path
       class="cls-6"
       d="m 94.8,36.7 a 1.49,1.49 0 0 1 -0.1,-0.6 v -0.4 a 6.25,6.25 0 0 0 0.1,-1.2 1.42,1.42 0 0 0 -0.2,-0.6 l -0.4,-0.5 a 1.22,1.22 0 0 1 -0.4,-0.9 c 0,-0.2 0,-0.2 0.2,-0.2 h 0.1 a 1.24,1.24 0 0 0 0.3,0.2 0.37,0.37 0 0 0 0.3,0.1 q 0.3,0 0.3,-0.9 A 2,2 0 0 0 94.4,30.1 L 94,29.7 a 0.37,0.37 0 0 1 -0.1,-0.3 c 0,-0.2 0.1,-0.3 0.2,-0.3 a 0.76,0.76 0 0 1 0.4,0.1 l 0.4,0.1 H 95 c 0.1,0 0.2,-0.1 0.2,-0.3 v -0.1 l -0.1,-0.7 c -0.1,-0.7 -0.2,-1 -0.4,-1 h -0.1 l -0.8,0.2 h -0.1 a 2.88,2.88 0 0 1 -2.5,-2 l -0.6,-2.1 a 5,5 0 0 0 -1.5,-2 1.33,1.33 0 0 0 -0.7,-0.3 l -0.6,-0.1 a 0.22,0.22 0 0 1 -0.2,-0.2 c 0,-0.1 0.1,-0.2 0.3,-0.2 a 11.07,11.07 0 0 1 2.8,0.5 9.67,9.67 0 0 0 2.1,0.5 c 1.6,0 2.6,-0.8 2.6,-2.2 A 4.69,4.69 0 0 0 94.8,17.2 4.09,4.09 0 0 0 93.3,15.8 0.37,0.37 0 0 0 93,15.7 0.22,0.22 0 0 0 92.8,15.9 v 0.4 0 c 0,0.2 -0.1,0.3 -0.2,0.3 -0.1,0 -0.4,-0.2 -0.6,-0.6 a 2.91,2.91 0 0 0 -2.5,-2 c -0.2,0 -0.3,0.1 -0.3,0.2 0,0.1 0.1,0.2 0.2,0.4 l 0.3,0.6 a 0.37,0.37 0 0 1 0.1,0.3 0.1,0.1 0 0 1 -0.1,0.1 0.68,0.68 0 0 1 -0.5,-0.3 L 88.7,14.8 88.3,14.2 A 2.85,2.85 0 0 0 87,13.1 l -0.8,-0.4 a 0.76,0.76 0 0 0 -0.4,-0.1 c -0.1,0 -0.1,0 -0.1,0.1 a 0.76,0.76 0 0 0 0.1,0.4 1.55,1.55 0 0 1 0.3,0.6 0.22,0.22 0 0 1 -0.2,0.2 q -0.3,0 -1.2,-1.2 a 3.23,3.23 0 0 1 -0.6,-1.8 2.37,2.37 0 0 1 2.4,-2.4 5.21,5.21 0 0 1 2.4,0.8 l 1.5,0.9 a 4.76,4.76 0 0 0 1.8,0.6 2,2 0 0 0 0.9,-0.2 0.52,0.52 0 0 0 0.4,-0.2 c 0.1,0 0.1,-0.1 0.1,-0.2 0,-0.1 -0.1,-0.2 -0.3,-0.2 A 9,9 0 0 1 90.1,8.7 C 89.5,8.3 89.2,8.1 89,8.1 88.8,8.1 88.6,7.9 88.6,7.8 l 0.1,-0.1 h 0.2 l 1.4,0.5 1.3,0.5 a 10.32,10.32 0 0 0 2.2,0.4 0.94,0.94 0 0 0 1,-1 2.39,2.39 0 0 0 -0.2,-0.9 C 94.4,6.8 94.1,6.5 94,6.5 c -0.1,0 -0.2,0.1 -0.2,0.3 v 0.6 c 0,0.4 -0.2,0.7 -0.6,0.7 A 1.09,1.09 0 0 1 92.7,8 L 90.6,7.3 a 9.51,9.51 0 0 0 -3.4,-0.7 4.11,4.11 0 0 0 -4.4,4 c 0,2.6 1.8,4.2 6.3,5.7 4.5,1.5 4.9,1.9 4.9,3 a 1.27,1.27 0 0 1 -1.4,1.2 2.2,2.2 0 0 1 -0.8,-0.1 c -0.2,0 -0.9,-0.2 -2.2,-0.5 a 16.84,16.84 0 0 0 -4,-0.5 c -3.2,0 -4.7,0.5 -6.4,2 a 1,1 0 0 1 -1,0.4 h -0.7 a 1,1 0 0 0 -0.9,0.6 l -0.5,0.9 a 0.52,0.52 0 0 1 -0.4,0.2 c -0.3,0 -0.5,-0.2 -0.8,-1 a 8.79,8.79 0 0 0 -0.6,-1 l -0.7,-0.6 -0.2,-0.2 c 0,-0.1 0.1,-0.2 0.2,-0.3 0.1,-0.1 0.2,-0.3 0.3,-0.4 0.1,-0.1 0.2,-0.3 0.2,-0.4 v -0.3 a 0.22,0.22 0 0 1 0.2,-0.2 c 0.2,0 0.2,0.1 0.3,0.9 a 2.3,2.3 0 0 0 0.3,0.9 l 0.4,0.8 c 0,0.1 0.2,0.2 0.3,0.2 0.3,0 0.8,-0.8 0.9,-1.6 0.1,-0.8 0.2,-0.9 0.3,-0.9 0.1,0 0.2,0.1 0.5,0.6 a 1.76,1.76 0 0 0 0.4,0.5 c 0.2,0.1 0.3,0.2 0.4,0.2 v 0 c 0.3,0 0.4,-0.2 0.4,-0.8 v -0.3 l -0.1,-0.5 v -0.3 c 0,-0.2 0.1,-0.3 0.2,-0.3 0.1,0 0.2,0 0.2,0.1 l 0.3,0.3 a 0.86,0.86 0 0 0 0.6,0.3 c 0.3,0 0.4,-0.1 0.4,-0.3 0,-0.2 0,-0.2 -0.3,-0.7 l -0.2,-0.4 c -0.3,-0.5 -0.4,-0.7 -0.7,-0.7 h -0.3 l -0.4,0.2 c -0.1,0 -0.2,0.1 -0.3,0.1 A 0.1,0.1 0 0 1 77.8,17.3 3.62,3.62 0 0 1 78.3,16 6.84,6.84 0 0 0 78.8,13.5 L 79,12 c 0.1,-0.9 0.2,-1.3 0.4,-1.3 0.2,0 0.1,0 0.1,0.1 l 0.1,0.5 v 0.4 a 2.77,2.77 0 0 0 0.1,0.8 c 0.1,0 0.3,-0.2 0.5,-0.4 l 0.3,-0.6 a 3.09,3.09 0 0 0 0.2,-0.8 C 80.7,10 80.4,9.6 79.4,9.4 A 0.35,0.35 0 0 1 79.2,9.3 V 8.5 L 79.1,8.1 79,7.8 78.8,7.4 78.5,7.6 C 77.8,8 77.7,8.1 77.5,8.4 77.3,8.7 77.1,8.9 77,8.9 A 0.35,0.35 0 0 1 76.8,8.8 L 76.9,8.3 V 8.2 A 2.4,2.4 0 0 0 75.8,6.3 L 75.6,6.6 75.4,6.9 75,7.4 a 1.78,1.78 0 0 0 -0.4,1 v 0.2 c 0,0.3 0,0.3 -0.2,0.3 H 74.3 L 74,8.6 73.7,8.2 73.1,7.8 72.8,7.6 a 2.71,2.71 0 0 0 -0.3,1.6 v 0.3 c 0,0.3 -0.1,0.5 -0.2,0.5 -0.1,0 -0.2,-0.1 -0.4,-0.2 a 0.75,0.75 0 0 0 -0.5,-0.1 0.82,0.82 0 0 0 -0.8,0.9 2.52,2.52 0 0 0 0.5,1.6 c 0.3,0.4 0.6,0.8 0.7,0.8 a 2.44,2.44 0 0 0 0.1,-0.7 l -0.1,-0.5 v -0.2 c 0,-0.2 0.1,-0.3 0.2,-0.3 0.1,0 0.3,0.2 0.4,0.7 l 0.3,1.2 0.3,1.5 a 9.29,9.29 0 0 0 0.4,1.3 c 0.3,0.6 0.4,1 0.5,1.1 0.4,0.5 0.4,0.5 0.4,0.6 a 0.1,0.1 0 0 1 -0.1,0.1 0.37,0.37 0 0 1 -0.3,-0.1 c -0.1,-0.1 -0.2,-0.1 -0.4,-0.1 h -0.2 c -0.5,0 -0.6,0.4 -0.6,2.6 a 15.32,15.32 0 0 0 0.6,4 l 0.7,1.7 a 2.35,2.35 0 0 1 0.2,0.8 c 0,2.3 -3.2,6.1 -6.5,7.7 -1.3,0.6 -1.7,1.3 -1.8,3 A 2.43,2.43 0 0 1 67,37 c 0.9,-0.3 1.1,-0.4 1.3,-0.8 l 0.1,-0.4 c 0.1,-0.2 0.2,-0.3 0.8,-0.6 a 2.18,2.18 0 0 0 0.5,-0.4 c 0.2,-0.3 0.3,-0.4 0.4,-0.4 0.1,0 0.1,0.1 0.1,0.2 v 0.1 l -0.4,0.9 v 0.2 a 1.82,1.82 0 0 0 1.1,1.6 C 70.9,37.2 71,37.1 71,37 a 4.05,4.05 0 0 1 0.3,-1 l 0.6,-0.9 c 0.2,-0.3 0.3,-0.5 0.3,-1.4 v -1.3 c 0,-0.2 0.1,-0.3 0.2,-0.3 0.1,0 0.2,0 0.2,0.1 l 0.1,0.6 c 0,0.1 0.2,0.2 0.3,0.2 0.3,0 0.7,-0.4 1.1,-1.1 a 1.2,1.2 0 0 0 0.2,-0.8 3.75,3.75 0 0 0 -0.1,-1 v -0.2 c 0,-0.2 0.1,-0.3 0.2,-0.3 0.1,0 0.1,0 0.2,0.1 l 0.2,0.7 c 0.1,0.2 0.2,0.4 0.4,0.4 0.5,0 1,-1 1.1,-2.1 0,-0.7 0.1,-0.9 0.3,-0.9 0.2,0 0.1,0 0.2,0.1 l 0.1,0.4 c 0,0.2 0.1,0.3 0.2,0.3 0.1,0 0.2,-0.1 0.4,-0.4 0.1,-0.1 0.2,-0.3 0.3,-0.4 a 0.37,0.37 0 0 0 0.1,-0.3 c 0,-0.2 0,-0.2 -0.3,-0.4 a 1,1 0 0 1 -0.4,-0.7 4,4 0 0 1 0.8,-2 c 0.5,-0.9 0.6,-1 0.7,-1 0.1,0 0.2,0.1 0.2,0.3 a 0.37,0.37 0 0 1 -0.1,0.3 0.76,0.76 0 0 0 -0.1,0.4 c 0,0.1 0.1,0.2 0.3,0.2 a 1.42,1.42 0 0 0 0.6,-0.2 4.13,4.13 0 0 1 0.9,-0.4 5.34,5.34 0 0 0 1.1,-0.4 1.48,1.48 0 0 1 0.7,-0.1 1.27,1.27 0 0 1 0.6,0.1 2.64,2.64 0 0 0 0.7,0.1 0.47,0.47 0 0 0 0.5,-0.5 2.07,2.07 0 0 0 -0.2,-0.6 3,3 0 0 0 -0.3,-0.4 C 83.5,22.1 83.4,22 83.4,21.9 v -0.1 c 0,-0.1 0.1,-0.1 0.2,-0.1 0.3,0 0.7,0.5 1.2,1.3 2.5,4.1 3.7,5.4 5.6,6 1.9,0.6 2.4,1 2.4,2.1 a 4.28,4.28 0 0 1 -1,2.3 c -1.3,1.8 -1.7,2.8 -1.7,4 v 0.3 c 0.2,-0.1 0.3,-0.1 0.4,-0.2 0.3,-0.1 0.4,-0.2 0.5,-0.2 l 0.8,-0.2 a 0.75,0.75 0 0 0 0.5,-0.7 v -0.1 l -0.1,-0.7 v -0.1 c 0,-0.4 0.2,-0.7 0.4,-0.7 a 0.22,0.22 0 0 1 0.2,0.2 l 0.5,1.1 c 0.6,0 0.8,0.3 1.5,0.6"
       id="path385" />
    <path
       class="cls-6"
       d="m 68.5,14.7 v 0.8 c 0,0.5 0.1,0.7 0.3,0.7 0.2,0 0.5,-0.4 0.7,-0.8 a 2.92,2.92 0 0 0 0.2,-0.9 0.85,0.85 0 0 0 -0.2,-0.6 c -0.1,-0.4 -0.3,-0.5 -0.5,-0.5 -0.2,0 -0.4,0.4 -0.5,1.3"
       id="path387" />
    <path
       class="cls-6"
       d="m 66.3,8.7 0.5,0.4 a 4.86,4.86 0 0 1 1.1,3.3 v 0.5 l -0.1,1.5 v 1.3 c 0,4.2 1.2,7 3,7 a 2.07,2.07 0 0 0 1.4,-1 c 0.1,-0.1 0.2,-0.2 0.3,-0.2 0.1,0 0.2,0.1 0.2,0.3 l 0.1,0.7 0.1,0.6 c 0,0.3 0.1,0.5 0.1,0.7 a 1.76,1.76 0 0 1 0.1,0.6 c 0,0.3 -0.1,0.4 -0.8,0.5 a 1.8,1.8 0 0 0 -0.9,0.4 c -0.5,0.3 -0.8,0.5 -0.8,0.6 l -0.4,0.7 A 0.22,0.22 0 0 1 70,26.8 c -0.2,0 -0.4,-0.3 -0.8,-0.9 a 7.91,7.91 0 0 1 -0.5,-1 c 0,-0.1 0.1,-0.1 0.3,-0.1 h 1.1 a 0.22,0.22 0 0 0 0.2,-0.2 c 0,-0.1 -0.1,-0.1 -0.1,-0.2 l -1.4,-0.6 a 2.79,2.79 0 0 1 -1.1,-1.1 3,3 0 0 1 -0.6,-1.4 c 0,-0.2 0.1,-0.4 0.3,-0.4 0.2,0 0.1,0 0.2,0.1 a 0.76,0.76 0 0 0 0.4,0.1 c 0.1,0 0.1,0 0.2,-0.1 0.1,-0.1 0.1,-0.1 0.1,-0.2 0,-0.1 -0.1,-0.2 -0.3,-0.3 a 4,4 0 0 1 -1.9,-2.7 c 0,-0.2 0.1,-0.4 0.2,-0.4 h 0.2 a 4.33,4.33 0 0 1 0.5,0.1 c 0.2,0 0.3,-0.1 0.3,-0.2 0,-0.1 -0.1,-0.2 -0.3,-0.3 -0.8,-0.4 -1,-0.6 -1.5,-1.8 a 12.2,12.2 0 0 0 -0.9,-1.7 1.93,1.93 0 0 1 1,-0.3 c 0.4,0 0.7,0.3 1,1.1 0.2,0.5 0.4,0.8 0.5,0.8 0.1,0 0.1,-0.1 0.1,-0.4 A 3.75,3.75 0 0 0 67.1,13.7 2,2 0 0 1 67,13 L 66.9,12.6 66.5,12.4 A 1.29,1.29 0 0 1 66,11.3 1.27,1.27 0 0 1 66.1,10.7 c 0,0 0.1,-0.3 0.2,-0.7 A 9.32,9.32 0 0 0 66.5,8.6 V 8.3 Z"
       id="path389" />
    <path
       class="cls-6"
       d="m 70.2,31.9 a 3,3 0 0 1 -1.5,-0.5 3.46,3.46 0 0 0 -1.2,-0.3 2.65,2.65 0 0 0 -1.4,0.5 l 0.3,0.2 0.6,0.4 0.6,0.5 c 0.2,0.1 0.3,0.2 0.5,0.2 a 2.88,2.88 0 0 0 2.1,-1"
       id="path391" />
    <path
       class="cls-6"
       d="m 82.5,37.7 a 2.41,2.41 0 0 1 0.6,-0.8 c 0.9,-0.8 1.3,-1.3 1.3,-1.8 v -0.7 c 0,-0.4 0.1,-0.5 0.3,-0.5 0.2,0 0.2,0 0.2,0.1 l 0.2,0.4 c 0,0.1 0.1,0.1 0.3,0.1 0.2,0 0.4,-0.2 0.8,-0.8 a 1,1 0 0 0 0.2,-0.6 0.76,0.76 0 0 0 -0.1,-0.4 c 0,-0.1 -0.1,-0.2 -0.2,-0.5 A 1.09,1.09 0 0 1 86,31.7 0.27,0.27 0 0 1 86.3,31.4 c 0.1,0 0.2,0 0.2,0.1 l 0.3,0.3 c 0.1,0.1 0.1,0.1 0.2,0.1 a 0.54,0.54 0 0 0 0.4,-0.3 l 0.3,-0.5 a 0.37,0.37 0 0 0 0.1,-0.3 q 0,-0.15 -0.3,-0.3 l -0.4,-0.2 a 2.3,2.3 0 0 1 -1,-2 0.76,0.76 0 0 1 0.1,-0.4 l 0.2,-0.5 a 1.09,1.09 0 0 0 0.1,-0.5 2.24,2.24 0 0 0 -0.3,-1 7.76,7.76 0 0 1 -0.4,-0.7 c -0.2,-0.5 -0.3,-0.6 -0.5,-0.6 -0.2,0 -0.2,0 -0.4,0.2 l -0.3,0.2 -0.4,0.5 -0.5,0.2 c -0.3,0.1 -0.5,0.7 -0.5,1.2 0,0.7 0.2,1.1 1.2,2.9 a 5.28,5.28 0 0 1 0.7,1.8 c 0,1.3 -1.3,2.4 -3.5,2.8 -2.6,0.5 -3.2,1 -3.5,2.6 a 2.42,2.42 0 0 1 1.4,-0.3 h 0.6 A 0.74,0.74 0 0 0 80.9,36.3 2.44,2.44 0 0 1 82,35.4 L 82.5,35.2 82.9,35 H 83 c 0.1,0 0.2,0 0.2,0.1 a 0.91,0.91 0 0 1 -0.3,0.5 2.11,2.11 0 0 0 -0.5,1.1 0.77,0.77 0 0 0 0.1,1"
       id="path393" />
    <path
       class="cls-6"
       d="m 78.5,32.7 a 4.3,4.3 0 0 1 1,0.9 c 0.3,0.4 0.3,0.5 0.7,0.5 A 1.09,1.09 0 0 0 80.7,34 L 81,33.9 c 0.5,-0.1 0.7,-0.2 0.7,-0.3 a 0.35,0.35 0 0 0 -0.1,-0.2 l -0.4,-0.3 -0.4,-0.3 a 1.78,1.78 0 0 0 -1,-0.4 1.52,1.52 0 0 0 -1.3,0.3"
       id="path395" />
    <path
       class="cls-6"
       d="m 88.8,34.5 h 1 c 0.3,0 0.5,0 0.6,-0.1 a 2.17,2.17 0 0 0 0.6,-0.7 0.6,0.6 0 0 0 0.1,-0.4 c 0,-0.2 -0.2,-0.3 -0.5,-0.3 -0.9,-0.2 -1.4,0.3 -1.8,1.5"
       id="path397" />
    <path
       class="cls-3"
       d="m 76.9,12.3 c 0,0.3 0.2,0.5 0.3,0.5 0.1,0 0.3,-0.5 0.7,-1 A 4.25,4.25 0 0 0 78.7,10 0.22,0.22 0 0 0 78.5,9.8 v 0 l -0.4,0.3 A 3.58,3.58 0 0 1 77,10.7 c -0.4,0.1 -0.5,0.3 -0.5,0.5 v 0.3 l 0.3,0.6 z"
       id="path399" />
    <path
       class="cls-3"
       d="M 74.1,9.9 A 0.76,0.76 0 0 0 73.7,9.7 0.22,0.22 0 0 0 73.5,9.9 V 10 a 4.33,4.33 0 0 0 0.1,0.5 4.13,4.13 0 0 0 0.4,0.9 l 0.5,0.8 a 1,1 0 0 0 0.7,0.4 v 0 a 0.35,0.35 0 0 0 0.2,-0.1 l 0.1,-0.6 0.2,-0.6 V 11.2 A 0.52,0.52 0 0 0 75.5,10.8 L 75,10.5 Z"
       id="path401" />
    <path
       class="cls-3"
       d="m 76.2,14 h -0.6 a 1.09,1.09 0 0 0 -0.4,-0.2 0.75,0.75 0 0 0 -0.5,-0.1 0.47,0.47 0 0 0 -0.5,0.5 3.44,3.44 0 0 0 0.4,1.3 10.37,10.37 0 0 1 0.4,1 c 0.4,0.9 0.7,1.3 1.2,1.3 0.5,0 0.7,-0.3 1,-1 l 0.4,-1.4 c 0.2,-0.4 0.6,-0.6 0.6,-1 A 0.77,0.77 0 0 0 77.4,13.7 H 77.2 L 76.7,14 Z"
       id="path403" />
    <path
       class="cls-6"
       d="m 76.1,14.9 h -0.4 c -0.1,0 -0.1,0 -0.2,0.1 -0.1,0.1 -0.1,0.1 -0.1,0.2 l 0.2,0.8 0.1,0.7 c 0.1,0.4 0.1,0.5 0.4,0.5 a 0.58,0.58 0 0 0 0.6,-0.6 l 0.1,-0.7 a 1.73,1.73 0 0 1 0.1,-0.7 c 0,-0.1 0,-0.1 -0.1,-0.2 a 0.35,0.35 0 0 0 -0.2,-0.1 z"
       id="path405" />
    <path
       class="cls-3"
       d="m 32.4,83.1 a 3.7,3.7 0 0 1 0.4,1.5 l 0.1,1.3 c 0.1,1.3 0.5,2 1.3,2 a 1.17,1.17 0 0 0 0.7,-0.2 l 0.4,-0.4 h 0.1 c 0.2,0 0.3,0.1 0.3,0.4 v 0.5 a 11.45,11.45 0 0 0 0.1,1.5 5.7,5.7 0 0 1 0.1,1.3 3,3 0 0 1 -0.3,1.6 6.46,6.46 0 0 1 0.4,1.9 2.54,2.54 0 0 1 -0.4,1.6 8.92,8.92 0 0 1 0.2,1.1 5.74,5.74 0 0 1 -0.1,1.2 4.21,4.21 0 0 0 -0.1,1.5 v 0.1 c 0,0.2 -0.1,0.3 -0.2,0.3 A 0.54,0.54 0 0 1 35,100 c -0.2,-0.3 -0.3,-0.3 -0.5,-0.3 -0.2,0 -0.3,0.1 -0.6,1.1 a 4.88,4.88 0 0 1 -0.8,1.2 6.78,6.78 0 0 0 -0.6,0.9 c -0.1,0.4 -0.2,0.6 -0.2,0.7 0,0.1 -0.1,0.1 -0.2,0.2 v 0 q -0.75,0 -1.8,-3.3 C 30.1,99.9 29.9,99.6 29.6,99.6 A 0.82,0.82 0 0 0 29,100 l -0.2,0.4 c 0,0.1 -0.1,0.1 -0.2,0.1 -0.3,0 -0.6,-0.5 -0.9,-1.1 a 4,4 0 0 1 -0.3,-1.5 c 0,-1 0.7,-1.8 3,-3 a 2.83,2.83 0 0 0 0.1,-4.7 2.87,2.87 0 0 0 -1.4,-0.7 0.47,0.47 0 0 0 -0.5,0.5 q 0,0.45 0.6,0.6 c 0.5,0.2 0.7,0.4 0.7,0.6 a 4.25,4.25 0 0 1 -0.5,1.2 3.57,3.57 0 0 1 -1,1.1 3.35,3.35 0 0 1 -1.5,2.1 4.49,4.49 0 0 1 -0.6,1.2 l -0.7,0.9 a 9.25,9.25 0 0 0 -0.5,1 c -0.1,0.5 -0.1,0.6 -0.3,0.6 -0.2,0 -0.8,-0.5 -1.3,-1.1 a 1.5,1.5 0 0 1 -0.4,-1.1 c -0.3,0.3 -0.4,0.3 -1.1,0.4 a 6.37,6.37 0 0 0 -0.9,0.2 1.69,1.69 0 0 1 -0.7,0.3 c -0.1,0 -0.2,-0.1 -0.2,-0.3 V 97 a 5.08,5.08 0 0 1 1,-2.9 2.68,2.68 0 0 0 -1.6,-0.8 c -0.2,0 -0.2,0 -0.2,-0.1 a 1.1,1.1 0 0 1 0.3,-0.6 1.7,1.7 0 0 1 0.6,-0.6 3.16,3.16 0 0 1 1.9,-0.7 6.21,6.21 0 0 1 1.8,0.5 2.35,2.35 0 0 0 0.8,0.2 0.53,0.53 0 0 0 0.6,-0.6 9.78,9.78 0 0 0 -0.9,-3 6.88,6.88 0 0 1 -0.6,-2.1 3,3 0 0 1 1.2,-2.6 1,1 0 0 0 -0.7,-0.2 2.24,2.24 0 0 0 -1,0.3 c -0.5,0.3 -0.7,0.5 -0.7,0.7 0,0.2 0.1,0.2 0.3,0.3 0.2,0.1 0.3,0.2 0.3,0.5 a 3.73,3.73 0 0 1 -1.6,2.5 2.91,2.91 0 0 1 -1.7,2.3 2.87,2.87 0 0 1 -0.7,1.5 7,7 0 0 0 -1.2,2.2 c -0.1,0.3 -0.2,0.5 -0.3,0.5 a 1.49,1.49 0 0 1 -0.7,-0.6 7.37,7.37 0 0 1 -0.5,-0.6 6.39,6.39 0 0 1 -0.4,-1 0.9,0.9 0 0 1 -0.5,0.1 h -0.8 a 4.36,4.36 0 0 0 -1.8,0.4 0.37,0.37 0 0 1 -0.3,0.1 c -0.2,0 -0.4,-0.4 -0.4,-1 a 5,5 0 0 1 1.1,-3.2 1.72,1.72 0 0 1 -0.6,-0.6 C 12.8,87.8 12.7,87.7 12.6,87.7 L 12.2,87.5 C 12.1,87.4 12,87.4 12,87.3 c 0,-0.1 0.5,-0.6 1,-1 a 2.9,2.9 0 0 1 1.6,-0.6 c 0.5,0 0.8,0.1 1.5,0.7 0.5,0.4 0.8,0.6 1,0.6 0.2,0 0.3,-0.1 0.5,-0.3 a 0.76,0.76 0 0 0 0.2,-0.5 3.65,3.65 0 0 0 -1.5,-2.2 3.53,3.53 0 0 0 -1.9,-0.6 2,2 0 0 0 -2,1.2 L 12,85.3 q -0.15,0.3 -0.3,0.3 c -0.2,0 -0.3,-0.1 -1,-0.9 l -0.8,-1 A 2.51,2.51 0 0 1 9.4,82.9 C 9.3,82.7 9.3,82.5 9.2,82.5 L 8.9,82.2 A 4.89,4.89 0 0 1 7.5,79.5 C 7.5,79.4 7.4,79.3 7.4,79.1 A 5.48,5.48 0 0 1 6.1,75.9 0.76,0.76 0 0 1 6.2,75.5 C 5.7,75 5.7,74.9 5.3,73.7 A 7.26,7.26 0 0 0 4.6,72 0.31,0.31 0 0 1 4.5,71.8 c 0,-0.2 0.3,-0.3 0.7,-0.4 A 2.14,2.14 0 0 1 5.8,71.3 H 6.4 V 70.4 A 4.14,4.14 0 0 1 6.6,68.9 2,2 0 0 0 6.7,68.2 2.14,2.14 0 0 0 6.6,67.6 4.33,4.33 0 0 0 6.5,67.1 C 6.5,67 6.4,66.9 6.4,66.8 A 0.22,0.22 0 0 1 6.6,66.6 0.76,0.76 0 0 1 7,66.7 c 0.6,0.3 1,0.6 1.4,0.8 a 5.1,5.1 0 0 1 2,3 v 0.3 a 2,2 0 0 1 -0.1,0.5 1.69,1.69 0 0 0 0.2,0.5 l 0.4,0.5 a 2.35,2.35 0 0 1 0.5,1.3 c 0,0.3 -0.1,0.4 -0.6,1.2 a 2.38,2.38 0 0 0 -0.5,1.4 4.14,4.14 0 0 0 0.6,2 c 0.4,0.7 0.8,1 1.2,1 0.7,0 1,-0.6 1.1,-2.3 a 15.69,15.69 0 0 1 0.3,-2.4 v -0.4 c 0,-0.2 -0.1,-0.3 -0.3,-0.6 l -1,-1.1 C 11.3,71.3 11,70.8 11,70 a 1.39,1.39 0 0 1 1.4,-1.5 h 0.4 v -0.2 a 5.07,5.07 0 0 1 0.2,-0.9 2.36,2.36 0 0 1 0.6,-1.2 1.24,1.24 0 0 0 0.3,0.2 c 0.1,0 0.2,0.1 0.6,0.2 a 3.29,3.29 0 0 1 0.6,0.3 5.82,5.82 0 0 1 0.5,-1.1 4.32,4.32 0 0 1 1,-1 c 0.1,0 0.3,0.1 0.5,0.4 l 0.6,0.6 a 5.92,5.92 0 0 1 0.4,0.6 l 0.1,0.3 c 0.2,-0.1 0.3,-0.2 0.4,-0.2 0.2,-0.2 0.4,-0.2 0.5,-0.3 l 0.6,-0.3 A 1.24,1.24 0 0 0 20,65.7 c 0.1,0 0.2,0.2 0.4,1.3 a 3.9,3.9 0 0 1 0.2,1.4 1.56,1.56 0 0 1 1.5,1.8 4.66,4.66 0 0 1 -1.6,3.2 1,1 0 0 0 -0.4,0.8 c 0,2.8 1,3.7 4.5,4.1 a 20.44,20.44 0 0 1 5.4,1.2 12.21,12.21 0 0 0 2.7,0.6 q 0.9,0 0.9,-0.6 c 0,-0.6 -0.4,-0.8 -3,-1.3 C 24.7,77 22.3,74.9 22.3,71 a 4.78,4.78 0 0 1 4.9,-4.9 8.26,8.26 0 0 1 4.1,1.4 c 1.6,0.9 1.9,1.1 2.3,1.1 0.4,0 0.6,-0.3 0.6,-1 0,-0.4 0.1,-0.7 0.4,-0.7 0.3,0 0.6,0.3 1,0.7 a 2.41,2.41 0 0 1 0.7,1.8 2.25,2.25 0 0 1 -1.8,2.3 L 34.2,72 a 2.76,2.76 0 0 1 -2.3,1 5.47,5.47 0 0 1 -2.8,-0.9 L 27.6,71 a 2.69,2.69 0 0 0 -1.6,-0.7 0.9,0.9 0 0 0 -1,1 1.47,1.47 0 0 0 1.1,1.4 l 1.4,0.5 a 14.67,14.67 0 0 1 1.4,0.6 2.25,2.25 0 0 1 0.7,-0.1 5.19,5.19 0 0 1 2.7,0.7 1.63,1.63 0 0 1 0.6,0.3 l 0.8,0.2 a 4.88,4.88 0 0 1 3.3,4.5 3.49,3.49 0 0 1 -3.8,3.7 z"
       id="path407" />
    <path
       class="cls-6"
       d="m 31.9,102.2 0.2,-0.4 0.5,-0.5 a 2.35,2.35 0 0 0 0.6,-1.7 3.55,3.55 0 0 0 -0.2,-1 1.76,1.76 0 0 1 -0.1,-0.6 0.45,0.45 0 0 1 0.3,-0.4 0.22,0.22 0 0 1 0.2,0.2 l 0.5,0.5 a 1.37,1.37 0 0 0 0.8,0.5 V 97.9 A 4.1,4.1 0 0 0 34,95.7 c -0.3,-0.3 -0.4,-0.5 -0.4,-0.6 a 0.22,0.22 0 0 1 0.2,-0.2 0.1,0.1 0 0 1 0.1,0.1 1.55,1.55 0 0 0 0.6,0.3 c 0.2,0 0.3,-0.4 0.3,-0.8 a 3.12,3.12 0 0 0 -0.7,-1.8 c -0.2,-0.2 -0.3,-0.4 -0.4,-0.5 -0.1,-0.1 -0.1,-0.1 -0.1,-0.2 0,-0.1 0.1,-0.2 0.3,-0.2 0.2,0 0.2,0 0.4,0.2 a 0.31,0.31 0 0 0 0.2,0.1 c 0.2,0 0.3,-0.4 0.3,-1.3 v -1 C 34.8,89.1 34.7,89 34.4,89 h -0.3 c -1.6,0 -2.3,-1 -2.7,-3.7 -0.3,-1.9 -1,-3.3 -1.9,-3.6 -0.5,-0.2 -0.7,-0.3 -0.7,-0.4 0,-0.1 0.1,-0.2 0.3,-0.2 a 2.07,2.07 0 0 1 0.6,0.2 9.76,9.76 0 0 0 3.3,0.8 2.61,2.61 0 0 0 2.7,-2.6 4.18,4.18 0 0 0 -1.5,-3.1 3.51,3.51 0 0 0 -0.8,-0.5 h -0.1 l -0.2,0.1 0.1,0.5 0.1,0.3 v 0.1 C 33.3,77 33.2,77 33.1,77 33,77 32.9,77 32.9,76.9 L 32.3,76 a 3.21,3.21 0 0 0 -2.2,-1.3 c -0.3,0 -0.4,0.1 -0.4,0.3 a 0.76,0.76 0 0 0 0.2,0.4 0.91,0.91 0 0 1 0.3,0.5 V 76 a 0.1,0.1 0 0 1 -0.1,0.1 v 0 c -0.2,0 -0.2,-0.1 -0.9,-0.9 a 3.85,3.85 0 0 0 -2.4,-1.3 c -0.1,0 -0.2,0 -0.2,0.1 l -0.1,0.1 c 0,0.1 0.1,0.2 0.2,0.4 0.1,0.2 0.4,0.4 0.4,0.5 0,0.1 -0.1,0.1 -0.2,0.1 -0.1,0 -0.6,-0.3 -1.4,-0.9 a 3.5,3.5 0 0 1 -1.7,-2.9 2.12,2.12 0 0 1 2,-2.2 3.44,3.44 0 0 1 2.1,0.8 l 1.6,1.2 a 4.38,4.38 0 0 0 2.5,0.8 1.27,1.27 0 0 0 0.6,-0.1 l 0.2,-0.2 a 0.44,0.44 0 0 0 -0.3,-0.1 2.26,2.26 0 0 1 -1.3,-0.6 l -1.6,-1.2 a 10.57,10.57 0 0 0 -1.3,-0.9 c -0.8,-0.4 -1,-0.5 -1,-0.6 a 0.35,0.35 0 0 1 0.2,-0.1 0.37,0.37 0 0 1 0.3,0.1 l 0.8,0.4 a 7.6,7.6 0 0 1 1.3,0.8 c 1.7,1.1 2.6,1.5 3.6,1.5 a 1.61,1.61 0 0 0 1.7,-1.6 1.27,1.27 0 0 0 -0.1,-0.6 l -0.2,-0.3 -0.2,-0.2 -0.1,0.1 -0.1,0.7 a 0.31,0.31 0 0 1 -0.1,0.2 c -0.1,0.1 -0.1,0.2 -0.2,0.3 -0.1,0.1 -0.3,0.2 -0.6,0.2 -0.5,0 -1.1,-0.3 -2.6,-1.2 A 7.67,7.67 0 0 0 27,67 4.23,4.23 0 0 0 22.8,71.2 c 0,3.2 2,4.7 8.1,6 2.3,0.5 3.4,1.2 3.4,2.2 0,1 -0.8,1.5 -2,1.5 a 2.22,2.22 0 0 1 -0.9,-0.1 30.69,30.69 0 0 1 -3.3,-0.9 15.93,15.93 0 0 0 -4.3,-0.6 c -2.4,0 -4,0.7 -5.1,2.3 a 0.75,0.75 0 0 1 -0.3,0.3 0.37,0.37 0 0 1 -0.3,-0.1 l -0.4,-0.4 a 2.45,2.45 0 0 0 -1.2,-0.4 1.08,1.08 0 0 0 -0.7,0.3 1.24,1.24 0 0 0 -0.3,0.2 c -0.2,0 -0.5,-0.4 -0.8,-0.9 a 4.66,4.66 0 0 1 -0.5,-2.2 c 0,-0.3 0.1,-0.5 0.2,-0.5 0.1,0 0.2,0.1 0.2,0.3 l 0.3,0.9 c 0.1,0.5 0.4,0.9 0.7,0.9 0.1,0 0.3,-0.1 0.5,-0.4 a 2.19,2.19 0 0 0 0.3,-0.5 c 0.2,-0.6 0.2,-0.7 0.4,-0.7 0.2,0 0.3,0.1 0.4,0.7 a 1.69,1.69 0 0 0 0.2,0.5 c 0.1,0.2 0.3,0.4 0.4,0.6 0.1,0.2 0.2,0.2 0.3,0.2 0.3,0 0.5,-0.5 0.5,-1 v -0.7 c 0,-0.2 0,-0.3 0.2,-0.3 0.2,0 0.1,0 0.2,0.2 a 1,1 0 0 0 0.5,0.4 1.69,1.69 0 0 0 0.5,0.2 c 0.1,0 0.2,-0.1 0.3,-0.2 a 0.37,0.37 0 0 0 0.1,-0.3 c 0,-0.1 -0.1,-0.2 -0.5,-0.6 A 3.12,3.12 0 0 1 19.3,76.8 C 19.2,76.5 19.1,76.4 19,76.4 a 0.31,0.31 0 0 0 -0.2,0.1 l -0.4,0.2 -0.3,0.1 H 18 a 0.22,0.22 0 0 1 -0.2,-0.2 2.62,2.62 0 0 1 0.6,-0.8 1,1 0 0 0 0.4,-0.9 c 0,-0.5 0.1,-1 0.2,-1 l 0.1,-1.1 a 8.73,8.73 0 0 1 0.5,-2.2 0.35,0.35 0 0 1 0.1,-0.2 c 0.1,0 0.2,0.2 0.2,0.5 v 0.5 c 0,0.4 0.1,0.6 0.2,0.6 0.1,0 0.3,-0.2 0.4,-0.6 l 0.3,-0.7 A 1.27,1.27 0 0 0 20.9,70.1 1,1 0 0 0 20,69 h -0.2 a 0.35,0.35 0 0 0 -0.2,0.1 c -0.2,0 -0.3,-0.2 -0.3,-0.4 v -1.1 l -0.1,-0.7 v -0.3 l -0.3,0.2 -0.4,0.3 -0.5,0.4 -0.4,0.4 A 0.31,0.31 0 0 1 17.4,68 c -0.2,0 -0.3,-0.1 -0.3,-0.6 v -0.1 c 0,-0.4 -0.2,-0.7 -0.8,-1.5 l -0.2,-0.2 -0.1,0.2 -0.4,0.6 -0.4,0.9 -0.1,0.6 A 0.44,0.44 0 0 1 15,68.2 c -0.1,0 -0.2,-0.1 -0.3,-0.2 a 1.94,1.94 0 0 0 -1.4,-0.9 l -0.1,0.2 C 13.1,67.7 13,67.9 13,68 v 1.1 c 0,0.2 -0.1,0.3 -0.2,0.3 v 0 l -0.2,-0.2 c -0.1,-0.1 -0.2,-0.1 -0.4,-0.1 -0.6,0 -1,0.3 -1,0.8 0,0.5 0.1,0.7 0.7,1.6 0.3,0.4 0.6,0.7 0.7,0.7 0.1,0 0.1,-0.2 0.1,-0.5 l -0.1,-0.4 a 1.09,1.09 0 0 1 -0.1,-0.5 c 0,-0.2 0.1,-0.3 0.2,-0.3 0.3,0 0.6,0.8 0.7,2 l 0.1,1.2 a 3.26,3.26 0 0 0 0.4,1.3 4.82,4.82 0 0 0 0.8,1.2 c 0.3,0.2 0.5,0.4 0.5,0.5 A 0.22,0.22 0 0 1 15,76.9 3.22,3.22 0 0 0 14.4,76.7 h -0.3 c -0.6,0 -0.9,0.4 -0.9,1.5 a 6.3,6.3 0 0 0 1.9,4.1 l 1.5,1.2 a 3.64,3.64 0 0 1 1.3,2.3 c 0,0.9 -1,1.9 -2.8,2.5 L 14,88.7 c -0.8,0.3 -1.2,0.8 -1.5,2.4 a 3.71,3.71 0 0 1 0.9,-0.2 H 14 a 0.67,0.67 0 0 0 0.7,-0.6 V 90 q 0,-0.15 0.3,-0.3 a 1.09,1.09 0 0 0 0.4,-0.2 l 0.4,-0.3 c 0.1,0 0.1,-0.1 0.2,-0.1 a 0.22,0.22 0 0 1 0.2,0.2 0.37,0.37 0 0 1 -0.1,0.3 3.59,3.59 0 0 0 -0.2,1.1 2.73,2.73 0 0 0 0.5,1.8 1,1 0 0 1 0.1,-0.4 4.38,4.38 0 0 1 0.5,-0.9 4,4 0 0 0 0.8,-2 V 89.1 L 17.7,88.4 A 0.76,0.76 0 0 1 17.9,88 c 0.1,-0.1 0.1,-0.1 0.2,-0.1 0.1,0 0.2,0.1 0.3,0.3 a 1.24,1.24 0 0 0 0.2,0.3 c 0.1,0 0.3,-0.3 0.5,-0.6 a 2.54,2.54 0 0 0 0.2,-0.7 0.6,0.6 0 0 0 -0.1,-0.4 0.76,0.76 0 0 1 -0.1,-0.4 c 0,-0.1 0,-0.1 0.1,-0.2 0.1,-0.1 0.1,-0.1 0.2,-0.1 0.1,0 0.1,0 0.2,0.1 l 0.3,0.2 a 0.37,0.37 0 0 0 0.3,0.1 c 0.1,0 0.3,-0.1 0.5,-0.4 a 2.79,2.79 0 0 0 0.5,-0.9 c 0,-0.1 -0.1,-0.1 -0.2,-0.3 A 2.54,2.54 0 0 1 19.9,83.2 1.09,1.09 0 0 1 20,82.7 l 0.3,-0.9 c 0.2,-0.4 0.2,-0.7 0.3,-0.7 h 0.1 a 0.22,0.22 0 0 1 0.2,0.2 0.76,0.76 0 0 1 -0.1,0.4 1.49,1.49 0 0 0 -0.1,0.6 c 0,0.2 0.1,0.4 0.3,0.4 a 0.9,0.9 0 0 0 0.5,-0.1 6.61,6.61 0 0 1 2.2,-0.6 2.13,2.13 0 0 1 1.2,0.4 0.37,0.37 0 0 0 0.3,0.1 c 0.1,0 0.1,0 0.2,-0.1 0.1,-0.1 0.1,-0.1 0.1,-0.2 a 0.76,0.76 0 0 0 -0.2,-0.4 0.55,0.55 0 0 1 -0.2,-0.5 0.22,0.22 0 0 1 0.2,-0.2 c 0.5,0 1.3,1.6 2,4.1 0.6,2 0.8,2.2 2.7,3.3 1.6,0.9 2.2,1.8 2.2,3.3 a 19.3,19.3 0 0 1 -1.2,5.7 4.92,4.92 0 0 0 -0.4,1.7 7.44,7.44 0 0 0 0.3,1.5 c 0.1,0.4 0.2,0.7 0.2,0.7 0.6,0.4 0.7,0.6 0.8,0.8"
       id="path409" />
    <path
       class="cls-6"
       d="m 24.4,97.7 c 0.2,-0.4 0.3,-0.5 0.6,-1.1 A 3.27,3.27 0 0 0 25.7,95 v -0.5 c 0,-0.5 0.1,-0.7 0.3,-0.7 0.2,0 0.1,0 0.2,0.1 l 0.2,0.3 c 0,0.1 0.1,0.1 0.2,0.1 A 0.54,0.54 0 0 0 27,94 3,3 0 0 0 27.4,92.9 v -0.8 a 0.27,0.27 0 0 1 0.3,-0.3 c 0.1,0 0.2,0 0.3,0.3 a 1.24,1.24 0 0 0 0.2,0.3 c 0.1,0 0.2,-0.1 0.3,-0.2 L 28.8,91.8 29,91.5 V 91.3 C 29,91.2 28.9,91.1 28.8,91 A 2.5,2.5 0 0 1 27.9,88.7 6.25,6.25 0 0 0 27.7,86.9 11.89,11.89 0 0 0 27.1,85.5 8.34,8.34 0 0 1 26.7,84.3 C 26.6,84 26.5,83.9 26.3,83.9 a 1.53,1.53 0 0 0 -1.5,1.7 6.72,6.72 0 0 0 0.7,2.6 8.32,8.32 0 0 1 0.8,2.7 c 0,1.2 -0.5,1.7 -2.1,2.3 -1.8,0.7 -2.7,1.6 -3,3.3 a 0.37,0.37 0 0 1 0.3,-0.1 c 0.2,-0.1 0.4,-0.1 0.4,-0.2 l 0.5,-0.1 a 1.58,1.58 0 0 0 0.9,-0.6 l 0.1,-0.4 a 0.22,0.22 0 0 1 0.2,-0.2 l 0.3,-0.1 0.3,-0.1 0.1,0.1 -0.1,0.4 a 5.64,5.64 0 0 0 -0.1,0.7 1.79,1.79 0 0 0 0.3,1.8"
       id="path411" />
    <path
       class="cls-6"
       d="m 7.2,68 c 0,0.2 0.1,0.3 0.1,0.4 a 3.22,3.22 0 0 1 -0.1,0.8 l -0.1,0.7 a 4.67,4.67 0 0 0 0.3,1.7 1.73,1.73 0 0 1 0.2,0.7 v 0.1 A 0.35,0.35 0 0 1 7.5,72.6 C 7.4,72.6 7.3,72.5 7.2,72.4 A 2.08,2.08 0 0 0 6,71.9 1.09,1.09 0 0 0 5.5,72 l 0.2,0.4 0.5,1.2 0.7,1 0.7,0.5 c 0.1,0 0.1,0.1 0.2,0.2 a 0.31,0.31 0 0 1 0.1,0.2 0.1,0.1 0 0 1 -0.1,0.1 H 7.2 a 0.35,0.35 0 0 0 -0.2,0.1 6.47,6.47 0 0 0 0.3,1 l 0.3,0.9 0.5,0.5 0.6,0.4 A 0.54,0.54 0 0 1 9,78.9 0.35,0.35 0 0 1 8.9,79.1 H 8.6 c -0.1,0 -0.2,0.1 -0.2,0.3 A 2.56,2.56 0 0 0 9,80.6 c 0.5,0.7 0.8,0.9 1.4,0.9 h 0.5 c 0.2,0 0.4,0.1 0.4,0.3 0,0.2 -0.1,0.2 -0.3,0.3 -0.4,0.1 -0.6,0.2 -0.6,0.4 0,0.2 0.1,0.2 0.2,0.3 l 0.3,0.4 a 1.18,1.18 0 0 0 0.6,0.5 0.91,0.91 0 0 0 0.5,-0.3 2.29,2.29 0 0 1 1,-0.7 c 1.1,-0.3 1.3,-0.4 1.3,-0.7 A 0.76,0.76 0 0 0 14.2,81.6 2.52,2.52 0 0 1 13.7,80 c 0,-0.4 -0.1,-0.7 -0.2,-0.7 -0.1,0 -0.2,0.1 -0.3,0.3 a 1.51,1.51 0 0 1 -1.1,0.7 C 11,80.3 9.7,78.6 9,76.3 A 4.68,4.68 0 0 1 8.8,74.6 15,15 0 0 1 9,72.6 8.13,8.13 0 0 1 9.4,71 V 70.6 A 6.2,6.2 0 0 0 7.2,68"
       id="path413" />
    <path
       class="cls-6"
       d="M 9.5,72.5 A 6.48,6.48 0 0 0 9,74.6 c 0,0.4 0.1,0.7 0.3,0.7 0.2,0 0.1,-0.1 0.2,-0.2 L 9.9,74.5 C 10,74.4 10,74.3 10.1,74.1 a 1.69,1.69 0 0 0 0.2,-0.5 1.27,1.27 0 0 0 -0.8,-1.1"
       id="path415" />
    <path
       class="cls-6"
       d="m 13.1,87 0.2,0.2 0.3,0.3 c 0.6,0.6 0.7,0.7 1,0.7 a 5.27,5.27 0 0 0 1.2,-0.3 L 16,87.7 A 1.73,1.73 0 0 0 15.7,87.3 L 15.3,87 A 2.77,2.77 0 0 0 14.4,86.5 C 14,86.4 13.7,86.6 13.1,87"
       id="path417" />
    <path
       class="cls-6"
       d="m 20.5,92.8 a 1.63,1.63 0 0 1 0.6,0.3 5.2,5.2 0 0 0 0.5,0.3 4.33,4.33 0 0 0 0.5,0.1 0.6,0.6 0 0 0 0.4,-0.1 l 0.7,-0.3 0.6,-0.2 a 1.24,1.24 0 0 0 0.3,-0.2 1.09,1.09 0 0 0 -0.4,-0.2 1.69,1.69 0 0 1 -0.5,-0.2 C 22.4,92 22.3,91.9 22,91.9 a 2.65,2.65 0 0 0 -1.5,0.9"
       id="path419" />
    <path
       class="cls-6"
       d="m 28.6,99.2 c 0.2,-0.5 0.4,-0.6 1.1,-0.6 0.7,0 1.6,-1.5 1.6,-2.5 0,-0.1 0,-0.2 -0.1,-0.2 A 0.31,0.31 0 0 0 31,96 c -0.2,0.2 -0.4,0.2 -0.5,0.3 l -0.9,0.4 a 2.3,2.3 0 0 0 -1.2,1.8 c 0,0.1 0.1,0.3 0.2,0.7"
       id="path421" />
    <path
       class="cls-3"
       d="m 14.8,71.3 0.3,0.5 a 3,3 0 0 0 0.7,0.5 c 0.1,0 0.1,-0.1 0.2,-0.3 l 0.1,-0.5 V 71 c 0,-0.4 -0.2,-0.6 -1.1,-0.8 -0.2,-0.1 -0.3,0 -0.4,-0.2 a 0.76,0.76 0 0 0 -0.4,-0.2 c -0.1,0 -0.1,0 -0.1,0.1 V 70 l 0.2,0.5 z"
       id="path423" />
    <path
       class="cls-3"
       d="m 18.2,71.3 -0.4,0.7 -0.2,0.2 v 0 c -0.2,0 -0.3,-0.4 -0.4,-0.8 l -0.1,-0.6 c 0,-0.3 0.2,-0.4 0.6,-0.5 0.4,-0.1 0.5,-0.1 0.6,-0.2 0.3,-0.2 0.5,-0.3 0.5,-0.4 h 0.1 c 0.1,0 0.1,0.1 0.1,0.2 v 0 l -0.2,0.5 z"
       id="path425" />
    <path
       class="cls-3"
       d="m 17.4,73.5 0.5,-0.3 a 0.35,0.35 0 0 0 0.2,-0.1 0.46,0.46 0 0 1 0.4,0.5 4,4 0 0 1 -0.7,1.6 c -0.4,0.8 -0.7,1.3 -1.1,1.3 -0.4,0 -1.1,-0.7 -1.7,-2 A 2.92,2.92 0 0 1 14.8,73.6 C 14.8,73.2 15,73 15.3,73 a 0.6,0.6 0 0 1 0.4,0.1 l 0.3,0.2 a 1.33,1.33 0 0 0 0.8,0.3 0.66,0.66 0 0 0 0.6,-0.1"
       id="path427" />
    <path
       class="cls-6"
       d="m 16.6,74.3 -0.4,-0.1 h -0.1 a 0.27,0.27 0 0 0 -0.3,0.3 3.88,3.88 0 0 0 0.6,1.4 0.31,0.31 0 0 0 0.2,0.1 c 0.2,0 0.4,-0.4 0.5,-1 l 0.1,-0.5 v -0.1 c 0,-0.2 -0.1,-0.3 -0.2,-0.3 h -0.1"
       id="path429" />
    <path
       class="cls-3"
       d="m 88.2,82.7 a 2.88,2.88 0 0 0 2,1.2 c 0.2,0 0.5,-0.1 0.9,-0.1 0.2,0 0.3,-0.1 0.4,-0.1 0.1,0 0.2,0.1 0.2,0.2 a 2.07,2.07 0 0 1 -0.2,0.6 1.42,1.42 0 0 0 -0.2,0.6 l -0.1,0.7 -0.3,0.6 -0.4,0.4 -0.1,0.1 v 0.4 A 1.77,1.77 0 0 1 89.5,89 c -0.1,0 -0.1,0.1 -0.2,0.2 l -0.1,0.3 a 3,3 0 0 1 -0.3,1.1 6.78,6.78 0 0 1 -0.6,0.9 6.55,6.55 0 0 0 -0.8,1.3 c -0.1,0.3 -0.2,0.4 -0.4,0.4 -0.2,0 -0.6,-0.4 -0.7,-0.9 -0.1,0.1 -0.1,0.2 -0.2,0.2 l -0.4,0.3 -0.6,0.4 a 2.74,2.74 0 0 0 -0.5,0.4 L 84.3,94 c -0.1,0.1 -0.1,0.1 -0.2,0.1 -0.1,0 -0.3,-0.3 -0.5,-0.8 l -0.3,-1.1 a 3.08,3.08 0 0 1 -0.1,-1 2,2 0 0 1 0.2,-1.1 c -0.6,0.1 -0.8,0.1 -1.2,0.2 -0.1,0 -0.2,0.1 -0.3,0.1 a 0.22,0.22 0 0 1 -0.2,-0.2 4.33,4.33 0 0 0 0.1,-0.5 l 0.4,-1.1 a 2.8,2.8 0 0 1 2.2,-1.6 3.09,3.09 0 0 1 0.8,0.2 1.09,1.09 0 0 0 0.5,0.1 0.67,0.67 0 0 0 0.7,-0.6 c 0,-0.2 -0.1,-0.4 -0.3,-0.4 a 6.74,6.74 0 0 1 -1.2,-0.4 3.17,3.17 0 0 1 -1.4,-1.1 c -0.4,-0.5 -0.6,-0.7 -0.8,-0.7 a 0.22,0.22 0 0 0 -0.2,0.2 v 0.6 a 6.36,6.36 0 0 1 -0.9,2.9 l -0.9,1.6 a 4.47,4.47 0 0 0 -0.6,2 c 0,0.6 0.3,1.2 0.6,1.3 l 0.5,0.1 c 0.1,0 0.1,0 0.2,0.1 0.1,0.1 0.1,0.1 0.1,0.2 0,0.1 -0.1,0.2 -0.2,0.3 a 7.68,7.68 0 0 1 -0.6,0.7 3,3 0 0 1 -1.6,1.2 3.33,3.33 0 0 1 -2.1,1.9 l -0.1,0.2 a 2.51,2.51 0 0 1 -1.8,1.3 H 75 a 2.49,2.49 0 0 1 -1.1,1.6 c -0.4,0.3 -0.7,0.5 -0.7,0.5 a 1.24,1.24 0 0 0 -0.2,0.3 c -0.1,0.3 -0.3,0.5 -0.5,0.5 -0.2,0 -0.6,-0.3 -0.8,-0.9 -0.1,0.1 -0.2,0.1 -0.3,0.2 a 4.57,4.57 0 0 1 -0.6,0.4 3,3 0 0 1 -1.1,0.3 c -0.8,0.2 -1.5,0.5 -1.6,0.8 l -0.3,0.5 -0.1,0.1 c -0.2,0 -0.3,-0.2 -0.4,-0.5 a 7.39,7.39 0 0 1 -0.3,-1.8 4,4 0 0 1 1.5,-3 v -0.3 a 3,3 0 0 1 3.3,-3 h 0.3 l 1.1,0.1 h 0.1 A 2.51,2.51 0 0 0 75,93.8 1.91,1.91 0 0 0 76,92 8.67,8.67 0 0 0 75.7,90.7 3.89,3.89 0 0 1 75.5,89.2 5.4,5.4 0 0 1 77.8,85.3 c 0.3,-0.2 0.6,-0.5 0.6,-0.7 0,-0.2 0,-0.1 -0.1,-0.1 -0.1,0 -0.2,0.1 -0.4,0.2 -0.2,0.1 -0.4,0.3 -0.8,0.5 l -0.5,0.3 -0.6,0.2 q -0.3,0.15 -0.3,0.3 a 0.37,0.37 0 0 0 0.1,0.3 0.35,0.35 0 0 0 0.1,0.2 c 0,0.1 -0.1,0.2 -0.2,0.4 l -0.4,0.7 A 3.23,3.23 0 0 1 74,88.9 c -0.4,1.1 -0.9,1.6 -1.6,1.7 a 2.67,2.67 0 0 1 -2.2,1.8 3,3 0 0 1 -1,1.5 c -0.2,0.2 -0.4,0.4 -0.4,0.5 -0.3,0.4 -0.3,0.5 -0.4,0.5 A 1.3,1.3 0 0 1 67.7,94.4 1.38,1.38 0 0 1 67.4,94 L 67.1,93.5 C 67,93.3 66.9,93.3 66.8,93.3 h -0.2 l -0.7,0.1 a 2.73,2.73 0 0 0 -1.3,0.7 l -0.4,0.6 c 0,0.1 -0.1,0.1 -0.2,0.1 -0.3,0 -0.5,-0.6 -0.5,-1.7 a 3,3 0 0 1 0.5,-2 l 0.9,-1.2 c 0.1,-0.2 0.2,-0.3 0.2,-0.5 A 0.76,0.76 0 0 0 64.9,89 c -0.2,-0.2 -0.4,-0.4 -0.5,-0.4 l -0.7,-0.1 c -0.1,0 -0.2,0 -0.2,-0.1 0,-0.1 0,-0.1 0.1,-0.2 a 2.7,2.7 0 0 1 0.8,-0.7 3.43,3.43 0 0 1 1.9,-0.7 4.06,4.06 0 0 1 1.7,0.5 l 0.9,0.6 a 0.6,0.6 0 0 0 0.4,0.1 1.4,1.4 0 0 0 1.1,-0.8 3.07,3.07 0 0 0 0.4,-1.5 2.05,2.05 0 0 0 -2.1,-2.1 2.93,2.93 0 0 0 -1.7,0.6 c -0.2,0.1 -0.3,0.2 -0.3,0.4 l -0.3,0.6 -0.2,0.2 c -0.2,0 -0.5,-0.5 -0.8,-1.1 A 3.37,3.37 0 0 1 65,83.1 5,5 0 0 1 64.7,81.5 v -0.9 a 3.61,3.61 0 0 1 -0.6,-2 2.8,2.8 0 0 1 0.2,-1.1 2.12,2.12 0 0 1 -0.4,-1.4 V 75.7 L 64,75.3 64.1,74.9 A 4.7,4.7 0 0 1 63.4,72.8 6.8,6.8 0 0 0 63,71.5 0.31,0.31 0 0 1 62.9,71.3 c 0,-0.2 0.4,-0.4 1,-0.4 h 0.5 a 1.49,1.49 0 0 1 -0.1,-0.6 6.88,6.88 0 0 1 0.2,-1.3 1.72,1.72 0 0 0 0.2,-0.8 c 0,-0.4 -0.1,-0.8 -0.1,-1 l -0.3,-0.6 a 0.37,0.37 0 0 1 -0.1,-0.3 c 0,-0.1 0,-0.1 0.2,-0.1 a 5.86,5.86 0 0 1 2.8,1.6 3.52,3.52 0 0 1 1.2,2.9 l -0.1,0.7 c 0.9,0.8 1.3,1.4 1.3,2.1 a 1.94,1.94 0 0 1 -0.6,1.3 2.74,2.74 0 0 0 -1.1,2.4 c 0,1.7 0.5,2.6 1.4,2.6 0.9,0 1.5,-0.9 1.6,-2.2 L 71,76.4 a 7.38,7.38 0 0 1 0.2,-1.2 2.81,2.81 0 0 0 0.1,-0.8 c 0,-0.4 -0.3,-1 -1.1,-2 C 69.4,71.4 69,70.8 69,70 a 1.61,1.61 0 0 1 1.6,-1.7 0.85,0.85 0 0 1 0.6,0.2 2,2 0 0 1 0.4,-1.4 2.36,2.36 0 0 1 0.6,-1.1 0.31,0.31 0 0 1 0.2,0.1 c 0.1,0.1 0.3,0.3 0.4,0.3 a 1.24,1.24 0 0 1 0.3,0.2 l 0.3,0.3 a 2.75,2.75 0 0 1 1,-1.6 c 0.4,-0.4 0.6,-0.6 0.7,-0.6 0.1,0 0.1,0.1 0.2,0.2 l 0.4,0.5 0.5,0.6 a 1.57,1.57 0 0 1 0.4,1 l 0.3,-0.2 0.5,-0.3 c 0.1,-0.1 0.2,-0.1 0.4,-0.3 A 0.31,0.31 0 0 1 78,66.1 c 0.1,0 0.1,0.1 0.2,0.2 l 0.2,0.7 0.4,0.8 a 1.55,1.55 0 0 1 0.2,0.8 v 0.2 h 0.2 a 1.48,1.48 0 0 1 1.2,1.6 4.72,4.72 0 0 1 -2.1,3.4 2.77,2.77 0 0 0 -0.1,0.9 c 0,2.5 0.7,3.1 4.6,3.7 a 15,15 0 0 1 2.6,0.5 c 0.1,0 1,0.3 2.5,0.8 a 5.81,5.81 0 0 0 1.9,0.4 c 0.5,0 0.7,-0.1 0.7,-0.4 0,-0.3 -0.6,-0.8 -2.6,-1.6 L 85.1,77 c -2.8,-1.1 -4.2,-2.8 -4.2,-5.4 a 5,5 0 0 1 5.2,-5.2 10.33,10.33 0 0 1 3.8,0.8 18.34,18.34 0 0 0 2.3,0.8 c 0.4,0 0.6,-0.3 0.7,-0.8 0.1,-0.5 0.2,-0.7 0.4,-0.7 0.4,0 0.8,0.4 1.1,1 a 3.29,3.29 0 0 1 0.4,1.7 1.88,1.88 0 0 1 -1.6,2 3,3 0 0 1 -2.6,1.3 c -1.3,0 -1.9,-0.3 -4.1,-1.6 a 2.7,2.7 0 0 0 -1.7,-0.6 1.17,1.17 0 0 0 -1.3,1.1 c 0,0.6 0.5,1 1.5,1.3 a 2.81,2.81 0 0 1 1.1,0.5 1.34,1.34 0 0 1 0.5,-0.1 6,6 0 0 1 3.4,1.5 5.33,5.33 0 0 1 3.7,4.5 3.74,3.74 0 0 1 -3.6,3.7 c 0.1,0.2 -1,0.1 -1.9,-0.1"
       id="path431" />
    <path
       class="cls-6"
       d="m 87,91.5 0.1,-0.4 0.1,-0.5 c 0,-0.1 0.1,-0.3 0.4,-0.5 a 2.77,2.77 0 0 0 0.5,-1.6 1.42,1.42 0 0 0 -0.2,-0.6 0.37,0.37 0 0 1 -0.1,-0.3 0.1,0.1 0 0 1 0.1,-0.1 0.1,0.1 0 0 1 0.1,-0.1 v 0 c 0.1,0 0.2,0.1 0.3,0.2 a 0.75,0.75 0 0 0 0.3,0.3 c 0.1,0 0.3,-0.2 0.4,-0.6 a 0.44,0.44 0 0 1 0.1,-0.3 1.9,1.9 0 0 0 -0.3,-0.9 0.37,0.37 0 0 1 -0.1,-0.3 0.22,0.22 0 0 1 0.2,-0.2 c 0.1,0 0.2,0.1 0.4,0.3 a 0.31,0.31 0 0 0 0.2,0.1 c 0.2,0 0.3,-0.2 0.5,-0.7 a 1.34,1.34 0 0 0 0.1,-0.5 c 0,-0.1 0,-0.1 -0.1,-0.1 H 89.5 A 2.62,2.62 0 0 1 87.7,83.8 L 86.8,82.7 C 86.5,82.3 86,81.6 86,81.6 l -0.7,-0.5 c -0.1,-0.1 -0.2,-0.2 -0.2,-0.3 0,-0.1 0.1,-0.2 0.3,-0.2 a 8.46,8.46 0 0 1 1.7,0.6 9.74,9.74 0 0 0 3.2,0.7 2.78,2.78 0 0 0 2.8,-2.7 4,4 0 0 0 -1.3,-2.6 1.52,1.52 0 0 0 -0.6,-0.4 0.22,0.22 0 0 0 -0.2,0.2 0.76,0.76 0 0 0 0.1,0.4 c 0,0.1 0.1,0.2 0.1,0.3 A 0.22,0.22 0 0 1 91,77.3 q -0.3,0 -0.6,-0.9 c -0.2,-0.7 -0.6,-1.1 -1.6,-1.6 a 4.91,4.91 0 0 0 -1,-0.4 0.1,0.1 0 0 0 -0.1,0.1 0.6,0.6 0 0 0 0.1,0.4 l 0.3,0.6 v 0 a 0.22,0.22 0 0 1 -0.2,0.2 c -0.2,0 -0.3,-0.1 -0.7,-0.8 a 3.14,3.14 0 0 0 -1.4,-1.1 1.09,1.09 0 0 0 -0.5,-0.1 v 0 a 0.35,0.35 0 0 0 -0.2,0.1 0.44,0.44 0 0 1 0.1,0.3 v 0.2 a 0.22,0.22 0 0 1 -0.2,0.2 4,4 0 0 1 -1.3,-1 3.15,3.15 0 0 1 -0.8,-1.9 2.51,2.51 0 0 1 2.5,-2.3 1.88,1.88 0 0 1 0.8,0.2 l 1.1,0.6 1.3,0.9 a 5.52,5.52 0 0 0 2.4,0.9 2.68,2.68 0 0 0 1,-0.2 c 0.3,-0.1 0.5,-0.2 0.5,-0.3 v 0 l -0.1,-0.1 -0.7,-0.1 a 4.75,4.75 0 0 1 -2,-0.9 l -1.5,-1 -1.3,-0.5 a 0.22,0.22 0 0 1 -0.2,-0.2 c 0,-0.1 0.1,-0.1 0.2,-0.1 a 1.58,1.58 0 0 1 0.4,0.1 l 1.2,0.4 a 8.48,8.48 0 0 1 1.5,0.7 6.69,6.69 0 0 0 2.8,1 1.24,1.24 0 0 0 1.3,-1.2 C 94.1,69.3 94,68.9 94,68.6 a 0.76,0.76 0 0 0 -0.2,-0.4 c -0.1,-0.1 -0.1,-0.1 -0.2,-0.1 -0.1,0 -0.1,0.1 -0.1,0.3 v 0.4 c 0,0.6 -0.2,0.8 -0.9,0.8 a 8.8,8.8 0 0 1 -2.9,-0.9 9,9 0 0 0 -3.4,-0.8 4.5,4.5 0 0 0 -4.5,4.2 q 0,2.85 3.9,4.5 l 2.7,1.1 c 2.3,0.9 3.1,1.6 3.1,2.5 0,0.7 -0.7,1.2 -1.7,1.2 A 5.92,5.92 0 0 1 87.7,80.9 19.09,19.09 0 0 0 82,79.8 6.86,6.86 0 0 0 76.6,81.9 c -0.2,0.2 -0.3,0.2 -0.4,0.2 -0.1,0 -0.2,0 -0.5,-0.2 A 1.85,1.85 0 0 0 75,81.7 1.52,1.52 0 0 0 74.2,82.1 l -0.3,0.4 c -0.1,0.1 -0.2,0.2 -0.3,0.2 -0.1,0 -0.6,-0.4 -0.9,-0.9 A 1.6,1.6 0 0 1 72.4,81 c 0,-0.2 -0.1,-0.5 -0.1,-0.9 v -0.6 l 0.1,-0.6 a 1.21,1.21 0 0 1 0.1,-0.5 c 0,-0.1 0.1,-0.1 0.2,-0.1 0.1,0 0.2,0.2 0.2,0.5 v 0.3 c 0,0.9 0.4,1.7 0.8,1.7 0.4,0 0.6,-0.6 0.8,-1.7 0,-0.2 0.1,-0.4 0.2,-0.4 0.1,0 0.2,0.2 0.3,0.6 a 4.67,4.67 0 0 0 0.5,1 0.54,0.54 0 0 0 0.4,0.3 c 0.3,0 0.4,-0.4 0.6,-1.3 q 0.15,-0.6 0.3,-0.6 c 0.1,0 0.1,0 0.1,0.1 a 1.09,1.09 0 0 1 0.2,0.4 1.38,1.38 0 0 0 0.4,0.3 0.76,0.76 0 0 0 0.4,0.1 0.37,0.37 0 0 0 0.3,-0.1 c 0.1,-0.1 0.2,-0.2 0.2,-0.3 A 1.24,1.24 0 0 1 78.2,78.9 2.65,2.65 0 0 1 77.6,77.8 1.54,1.54 0 0 0 77.3,77.1 C 77.2,77 77.2,76.9 77.1,76.9 h -0.3 c 0,0 -0.3,0.1 -0.7,0.2 h -0.2 c -0.1,0 -0.1,-0.1 -0.1,-0.2 0,-0.1 0.1,-0.2 0.3,-0.4 a 4.66,4.66 0 0 0 1.5,-3.3 3.29,3.29 0 0 1 0.6,-1.9 l 0.2,-0.2 c 0.1,0 0.2,0.1 0.2,0.3 a 1.09,1.09 0 0 1 -0.1,0.5 c 0,0.1 -0.1,0.3 -0.1,0.4 v 0.1 l 0.1,0.2 0.4,-0.1 0.4,-0.4 a 2.84,2.84 0 0 0 0.4,-1.3 0.91,0.91 0 0 0 -0.3,-0.7 c -0.2,-0.2 -0.3,-0.3 -0.5,-0.3 h -0.4 c -0.2,0 -0.3,-0.1 -0.3,-0.2 l 0.1,-0.2 V 69 L 78.1,68.2 77.9,67.8 77.8,67.5 77.6,67.7 77.1,68 C 77,68.1 76.8,68.2 76.7,68.4 76.2,69 76.2,69 76,69 c -0.2,0 -0.2,0 -0.2,-0.1 v -0.1 a 2,2 0 0 0 0.1,-0.7 3.07,3.07 0 0 0 -0.9,-1.9 2.6,2.6 0 0 0 -1,2 v 0.4 c 0,0.1 0,0.2 -0.1,0.2 v 0 a 0.22,0.22 0 0 1 -0.2,-0.2 l -0.4,-0.5 a 3.61,3.61 0 0 0 -0.5,-0.4 c -0.1,0 -0.1,-0.1 -0.3,-0.2 l -0.1,0.3 A 3.07,3.07 0 0 0 72,69.3 c 0,0.4 -0.1,0.6 -0.2,0.6 a 0.31,0.31 0 0 1 -0.2,-0.1 c -0.5,-0.3 -0.5,-0.3 -0.7,-0.3 a 0.94,0.94 0 0 0 -1,1 2.43,2.43 0 0 0 0.4,1.1 c 0.3,0.5 0.7,1 0.9,1 0.2,0 0.1,0 0.1,-0.2 v -0.6 l -0.1,-0.4 v -0.1 c 0,-0.1 0,-0.2 0.1,-0.2 0.3,0 0.5,0.8 0.8,2.5 a 5.29,5.29 0 0 0 1.2,3.1 l 0.3,0.3 a 0.1,0.1 0 0 1 -0.1,0.1 c -0.1,0 -0.2,-0.1 -0.4,-0.2 a 0.37,0.37 0 0 0 -0.3,-0.1 0.86,0.86 0 0 0 -0.7,0.8 l -0.3,1.8 -0.2,2.6 a 7.18,7.18 0 0 0 0.2,1.9 c 0.1,0.7 0.2,1.2 0.2,1.5 a 4.13,4.13 0 0 1 -3.2,4 L 66.7,90 c -1.3,0.4 -1.9,1.2 -2.1,2.8 0.3,-0.3 0.4,-0.3 0.9,-0.4 l 0.6,-0.1 a 0.59,0.59 0 0 0 0.5,-0.2 c 0.1,0 0.2,-0.2 0.4,-0.4 l 0.5,-0.6 c 0.2,-0.2 0.4,-0.4 0.5,-0.4 0.1,0 0.1,0.1 0.1,0.2 a 1.69,1.69 0 0 1 -0.2,0.5 1.08,1.08 0 0 0 -0.2,0.8 2.14,2.14 0 0 0 0.5,1.3 0.76,0.76 0 0 0 0.1,-0.4 c 0.1,-0.1 0.2,-0.3 0.5,-0.7 A 5.48,5.48 0 0 0 69.6,91 c 0,-0.5 0.1,-0.7 0.2,-0.7 0.1,0 0.1,0 0.2,0.3 0,0.1 0,0.1 0.1,0.2 0.1,0.1 0.1,0.1 0.2,0.1 a 0.77,0.77 0 0 0 0.3,-0.1 2.18,2.18 0 0 0 0.5,-0.4 l 0.3,-0.6 a 3.93,3.93 0 0 0 0.2,-0.6 v -0.4 c 0,-0.1 0,-0.2 0.1,-0.2 0.1,0 0.2,0.2 0.3,0.4 0.1,0.2 0.1,0.2 0.2,0.2 v 0 c 0.1,0 0.2,-0.1 0.3,-0.1 a 1.93,1.93 0 0 0 0.6,-1.2 V 87.3 L 73,86.8 v 0 a 0.22,0.22 0 0 1 0.2,-0.2 c 0.1,0 0.3,0.2 0.5,0.7 q 0.15,0.3 0.3,0.3 c 0.2,0 0.3,-0.1 0.6,-0.5 l 0.3,-0.4 a 0.5,0.5 0 0 0 0,-0.6 l -0.3,-0.4 c 0,-0.1 -0.1,-0.2 -0.1,-0.3 a 3.74,3.74 0 0 1 0.5,-1.5 5.44,5.44 0 0 0 0.4,-0.8 c 0.1,-0.1 0.1,-0.2 0.2,-0.2 0.1,0 0.1,0.1 0.1,0.2 v 1 c 0,0.1 0.1,0.2 0.3,0.2 a 0.37,0.37 0 0 0 0.3,-0.1 l 0.8,-0.3 a 5.74,5.74 0 0 0 0.7,-0.4 4.1,4.1 0 0 1 2.3,-0.8 2.87,2.87 0 0 1 1.5,0.5 0.49,0.49 0 0 0 0.3,0.1 c 0.1,0 0.2,-0.1 0.3,-0.2 A 0.31,0.31 0 0 0 82.3,82.9 0.6,0.6 0 0 0 82.2,82.5 1.69,1.69 0 0 1 82,82 a 0.1,0.1 0 0 1 0.1,-0.1 0.22,0.22 0 0 1 0.2,0.2 c 0.1,0.2 0.3,0.6 0.7,1.3 a 4,4 0 0 0 2.1,2 l 1.4,0.3 c 0.4,0.1 0.5,0.3 0.5,0.8 a 2.81,2.81 0 0 1 -1.3,2.4 l -1.2,0.7 a 2.26,2.26 0 0 0 -0.8,1.6 12.77,12.77 0 0 0 0.2,1.7 l 0.2,-0.2 0.5,-0.3 0.5,-0.5 0.3,-0.7 0.3,-0.6 c 0.1,-0.3 0.3,-0.5 0.4,-0.5 0.1,0 0.2,0.2 0.2,0.5 v 0.2 c 0.3,-0.2 0.4,0 0.7,0.7"
       id="path433" />
    <path
       class="cls-6"
       d="m 68.1,100.7 c 0,-1.5 0.6,-2.2 2.8,-3.3 4.4,-2.2 6.7,-4.2 6.7,-5.8 A 6.09,6.09 0 0 0 77.2,89.9 5,5 0 0 1 76.9,88.5 4.35,4.35 0 0 1 78.2,86 l 0.6,-0.5 a 1.79,1.79 0 0 0 0.6,-1 v -0.3 c 0,-0.3 0.1,-0.4 0.5,-0.5 h 0.3 a 0.35,0.35 0 0 0 0.2,-0.1 c 0.1,0 0.2,0.1 0.3,0.2 l 0.2,0.3 0.2,0.3 c 0.1,0.1 0.1,0.1 0.2,0.1 a 0.31,0.31 0 0 0 0.2,-0.1 0.76,0.76 0 0 1 0.4,-0.1 0.27,0.27 0 0 1 0.3,0.3 4.84,4.84 0 0 1 -1.2,2.6 c -1.2,1.7 -1.6,2.6 -1.6,3.6 a 3.41,3.41 0 0 0 0.7,2.2 0.31,0.31 0 0 1 0.1,0.2 c 0,0.1 -0.1,0.2 -0.2,0.4 -0.1,0.2 -0.1,0.2 -0.2,0.3 -0.3,0.4 -0.4,0.5 -0.6,0.5 -0.2,0 -0.2,-0.1 -0.3,-0.3 l -0.1,-0.3 a 0.22,0.22 0 0 0 -0.2,-0.2 l -0.1,0.1 c -0.1,0.1 -0.1,0.2 -0.1,0.4 v 0.5 a 1.42,1.42 0 0 1 -0.2,0.6 c -0.1,0.2 -0.3,0.3 -0.4,0.5 -0.1,0.2 -0.2,0.2 -0.3,0.2 -0.1,0 -0.2,-0.1 -0.2,-0.3 L 77.1,95 a 0.22,0.22 0 0 0 -0.2,-0.2 c -0.1,0 -0.2,0.2 -0.2,0.5 -0.1,0.7 -0.2,1.2 -0.4,1.3 L 75.8,97 a 0.76,0.76 0 0 1 -0.4,0.2 c -0.1,0 -0.2,0 -0.2,-0.1 L 75,96.6 a 0.1,0.1 0 0 0 -0.1,-0.1 c -0.1,0 -0.2,0.3 -0.3,0.7 a 2.36,2.36 0 0 1 -1,2.1 2.17,2.17 0 0 0 -0.8,0.9 2,2 0 0 1 -0.4,-1.3 c 0,-0.3 0,-0.5 0.1,-0.6 a 1.69,1.69 0 0 0 0.2,-0.5 0.1,0.1 0 0 0 -0.1,-0.1 0.31,0.31 0 0 0 -0.2,0.1 1.38,1.38 0 0 1 -0.4,0.3 1.17,1.17 0 0 0 -0.8,1.1 1.52,1.52 0 0 1 -1.5,1.4 c -1.1,0.2 -1.2,0.2 -1.5,0.6 z"
       id="path435" />
    <path
       class="cls-6"
       d="m 66,67.6 v 0.8 a 0.9,0.9 0 0 1 -0.1,0.5 2.64,2.64 0 0 0 -0.1,0.7 2.82,2.82 0 0 0 0.4,1.5 2.61,2.61 0 0 1 0.3,1.1 0.35,0.35 0 0 1 -0.1,0.2 c -0.1,0 -0.1,0 -0.2,-0.1 L 65.9,71.9 C 65.7,71.6 65.5,71.5 65,71.5 h -0.6 c 0.2,0.5 0.3,0.8 0.4,1.1 0.3,1 0.3,1.1 0.9,1.6 0.6,0.5 0.6,0.6 0.6,0.8 0,0.2 -0.1,0.3 -0.2,0.3 h -0.3 c -0.2,0 -0.3,0.3 -0.3,0.7 a 3.09,3.09 0 0 0 0.2,0.8 c 0.1,0.2 0.2,0.3 0.2,0.4 l 0.3,0.3 a 0.37,0.37 0 0 1 0.1,0.3 c 0,0.2 -0.1,0.3 -0.2,0.3 A 0.37,0.37 0 0 1 65.8,78 0.35,0.35 0 0 1 65.6,77.9 c -0.1,0 -0.2,0.1 -0.2,0.3 l 0.1,0.5 0.2,0.8 c 0,0.2 0.2,0.4 0.4,0.6 a 1.76,1.76 0 0 0 0.5,0.4 l 0.6,0.3 c 0.1,0 0.1,0.1 0.1,0.3 a 0.22,0.22 0 0 1 -0.2,0.2 0.77,0.77 0 0 1 -0.3,-0.1 h -0.3 c -0.3,0 -0.3,0 -0.3,0.3 a 0.9,0.9 0 0 0 0.1,0.5 l 0.1,0.5 c 0.1,0.5 0.3,0.8 0.5,0.8 a 0.31,0.31 0 0 0 0.2,-0.1 3.72,3.72 0 0 1 2,-0.7 4.87,4.87 0 0 1 1.5,0.2 0.49,0.49 0 0 0 0.3,0.1 c 0.1,0 0.1,-0.1 0.1,-0.4 l 0.1,-0.6 0.1,-1 0.1,-0.7 v -0.4 c -0.1,0.1 -0.2,0.2 -0.3,0.2 a 1.93,1.93 0 0 1 -1.5,0.7 c -1.5,0 -2.3,-1.7 -2.3,-4.5 a 34,34 0 0 1 0.5,-4.8 3.44,3.44 0 0 0 0.1,-0.9 3.48,3.48 0 0 0 -1.8,-2.8"
       id="path437" />
    <path
       class="cls-6"
       d="m 68.2,74.8 0.3,-0.3 0.3,-0.3 a 1.78,1.78 0 0 0 0.4,-1 0.9,0.9 0 0 0 -0.1,-0.5 c -0.1,-0.2 -0.3,-0.5 -0.5,-0.5 -0.2,0 -0.2,0.3 -0.2,0.7 l -0.1,0.5 -0.1,0.5 z"
       id="path439" />
    <path
       class="cls-6"
       d="m 65.3,87.9 c 0.3,0.1 0.4,0.2 0.7,0.6 a 1.37,1.37 0 0 0 1.3,0.6 0.9,0.9 0 0 0 0.5,-0.1 l 0.4,-0.1 0.3,-0.1 c 0.2,0 0.3,-0.1 0.3,-0.2 0,-0.1 -0.3,-0.3 -0.6,-0.5 a 3,3 0 0 0 -0.8,-0.4 2.54,2.54 0 0 0 -0.7,-0.2 2.5,2.5 0 0 0 -1.4,0.4"
       id="path441" />
    <path
       class="cls-6"
       d="M 69.7,96.9 A 2.14,2.14 0 0 1 72,95 c 0.6,0 1,0.1 1,0.3 0,0.2 -0.3,0.4 -0.9,0.7 a 4.54,4.54 0 0 0 -0.9,0.5 4.59,4.59 0 0 1 -1.4,0.7 z"
       id="path443" />
    <path
       class="cls-6"
       d="M 82.7,89.2 C 83.2,89.1 83.3,89 83.5,89 h 0.6 c 0.1,0 0.2,-0.1 0.4,-0.3 0.2,-0.2 0.3,-0.2 0.4,-0.3 0.6,-0.4 0.7,-0.5 0.7,-0.6 0,-0.1 -0.3,-0.3 -0.8,-0.3 -1,0 -1.6,0.5 -2.1,1.7"
       id="path445" />
    <path
       class="cls-3"
       d="m 73,69.6 0.5,0.3 a 5.92,5.92 0 0 1 0.6,0.4 c 0.5,0.2 0.7,0.3 0.7,0.5 a 0.76,0.76 0 0 1 -0.1,0.4 4.33,4.33 0 0 0 -0.1,0.5 0.47,0.47 0 0 1 -0.5,0.5 c -0.2,0 -0.4,-0.3 -0.8,-1 A 5,5 0 0 1 72.8,69.9 V 69.8 A 0.22,0.22 0 0 1 73,69.6"
       id="path447" />
    <path
       class="cls-3"
       d="m 77.4,70.8 -0.7,0.7 a 0.94,0.94 0 0 0 -0.3,0.7 0.35,0.35 0 0 1 -0.2,0.1 v 0 A 0.27,0.27 0 0 1 75.9,72 v -1 0 c 0,-0.2 0.1,-0.3 0.3,-0.4 l 0.7,-0.2 0.7,-0.4 a 0.77,0.77 0 0 1 0.3,-0.1 0.22,0.22 0 0 1 0.2,0.2 0.31,0.31 0 0 1 -0.1,0.2 z"
       id="path449" />
    <path
       class="cls-3"
       d="m 74.1,72.9 0.5,0.4 a 0.6,0.6 0 0 0 0.4,0.1 3.09,3.09 0 0 0 0.8,-0.2 L 76.2,73 a 0.35,0.35 0 0 0 0.2,-0.1 0.56,0.56 0 0 1 0.5,0.6 3.2,3.2 0 0 1 -0.8,1.7 l -0.4,0.7 c -0.3,0.4 -0.5,0.5 -0.7,0.5 -0.4,0 -0.6,-0.2 -1.1,-1.3 a 4.29,4.29 0 0 1 -0.6,-1.7 c 0,-0.3 0.2,-0.6 0.4,-0.6 a 0.76,0.76 0 0 0 0.4,0.1"
       id="path451" />
    <path
       class="cls-6"
       d="m 74.5,74.7 v 0.6 a 0.47,0.47 0 0 0 0.5,0.5 c 0.3,0 0.5,-0.4 0.6,-1.1 a 1.58,1.58 0 0 0 0.1,-0.4 C 75.7,74.1 75.6,74 75.3,74 h -0.5 q -0.3,0 -0.3,0.6"
       id="path453" />
    <path
       class="cls-3"
       d="m 38.5,60.2 h 3.1 v 6.4 h 3.7 v -6.4 h 9.3 v 6.4 h 3.7 v -6.4 h 3.1 V 43.6 h -3.6 l -0.1,-0.2 a 2.06,2.06 0 0 0 -1.7,-1 1.89,1.89 0 0 0 -1.7,1.2 h -2.6 a 1.88,1.88 0 0 0 -3.5,0 h -2.8 a 2,2 0 0 0 -1.8,-1.2 1.79,1.79 0 0 0 -1.7,1.2 h -3.4 z"
       id="path455" />
    <rect
       class="cls-5"
       x="39.799999"
       y="45"
       width="20.4"
       height="14"
       id="rect457" />
    <path
       class="cls-6"
       d="m 41.9,48.2 a 1,1 0 1 0 1,1 1,1 0 0 0 -1,-1"
       id="path459" />
    <path
       d="m 41.9,50.3 a 1.1,1.1 0 1 1 1.1,-1.1 1.11,1.11 0 0 1 -1.1,1.1 z m 0,-2 a 0.8,0.8 0 1 0 0.8,0.8 c 0.1,-0.4 -0.3,-0.8 -0.8,-0.8 z"
       id="path461" />
    <path
       class="cls-6"
       d="m 57.9,48.2 a 1,1 0 1 0 1,1 1,1 0 0 0 -1,-1"
       id="path463" />
    <path
       d="m 57.9,50.3 a 1.1,1.1 0 1 1 1.1,-1.1 1.11,1.11 0 0 1 -1.1,1.1 z m 0,-2 a 0.8,0.8 0 1 0 0.8,0.8 c 0.1,-0.4 -0.3,-0.8 -0.8,-0.8 z"
       id="path465" />
    <path
       class="cls-6"
       d="m 41.9,55.8 a 1,1 0 0 0 0,2 0.92,0.92 0 0 0 0.9,-1 0.87,0.87 0 0 0 -0.9,-1"
       id="path467" />
    <path
       d="m 41.9,57.9 a 1.1,1.1 0 1 1 1.1,-1.1 1.11,1.11 0 0 1 -1.1,1.1 z m 0,-2 a 0.79,0.79 0 0 0 -0.8,0.8 0.82,0.82 0 0 0 0.9,0.8 0.86,0.86 0 0 0 0.8,-0.8 0.88,0.88 0 0 0 -0.9,-0.8 z"
       id="path469" />
    <path
       class="cls-6"
       d="m 57.9,55.8 a 1,1 0 1 0 1,1 1,1 0 0 0 -1,-1"
       id="path471" />
    <path
       d="m 57.9,57.9 a 1.1,1.1 0 1 1 1.1,-1.1 1.11,1.11 0 0 1 -1.1,1.1 z m 0,-2 a 0.8,0.8 0 1 0 0.8,0.8 c 0.1,-0.4 -0.3,-0.8 -0.8,-0.8 z"
       id="path473" />
    <path
       class="cls-6"
       d="m 45,52.9 a 6.3,6.3 0 0 0 5,2.5 c 1.9,0 3.2,-0.7 4.7,-2.5 A 6.16,6.16 0 0 0 49.9,50.7 5.6,5.6 0 0 0 45,52.9"
       id="path475" />
    <path
       class="cls-3"
       d="m 45.9,52.9 a 5.82,5.82 0 0 1 7.8,0 5,5 0 0 1 -3.9,1.7 6,6 0 0 1 -3.9,-1.7"
       id="path477" />
    <path
       class="cls-6"
       d="m 47.6,52.5 a 4,4 0 0 0 2.2,0.7 3.69,3.69 0 0 0 2.3,-0.7 4.93,4.93 0 0 0 -2.3,-0.6 7.09,7.09 0 0 0 -2.2,0.6"
       id="path479" />
    <rect
       class="cls-3"
       x="39.5"
       y="45.700001"
       width="21"
       height="0.69999999"
       id="rect481" />
    <path
       d="m 60.5,46.5 h -21 v -0.8 h 21 z M 39.6,46.4 H 60.5 V 45.8 H 39.6 Z"
       id="path483" />
    <path
       class="cls-6"
       d="m 42.7,44.8 v 2 a 0.82,0.82 0 0 0 0.9,0.8 c 0.6,0 0.9,-0.3 0.9,-0.8 v -2 c 0,-0.8 -0.3,-1.2 -0.8,-1.2 a 0.6,0.6 0 0 0 -0.4,0.1 0.35,0.35 0 0 0 -0.2,0.1 C 43,43.9 43,44 42.9,44.1 a 0.76,0.76 0 0 0 -0.1,0.4"
       id="path485" />
    <path
       class="cls-6"
       d="m 49,46.5 v 0.4 a 0.82,0.82 0 0 0 0.9,0.8 c 0.6,0 0.9,-0.3 0.9,-0.8 v -2 c 0,-0.8 -0.3,-1.2 -0.8,-1.2 -0.5,0 -0.9,0.5 -0.9,1.2"
       id="path487" />
    <path
       class="cls-6"
       d="m 55.1,44.8 v 2 a 0.82,0.82 0 0 0 0.9,0.8 c 0.6,0 0.9,-0.3 0.9,-0.8 v -2 c 0,-0.8 -0.3,-1.2 -0.8,-1.2 a 0.6,0.6 0 0 0 -0.4,0.1 0.35,0.35 0 0 0 -0.2,0.1 c -0.1,0.1 -0.1,0.2 -0.2,0.3 a 0.76,0.76 0 0 0 -0.1,0.4"
       id="path489" />
    <rect
       class="cls-6"
       x="42.299999"
       y="61.700001"
       width="1.9"
       height="2.5"
       id="rect491" />
    <rect
       class="cls-6"
       x="42.299999"
       y="64.699997"
       width="1.9"
       height="0.80000001"
       id="rect493" />
    <rect
       class="cls-6"
       x="55.299999"
       y="61.700001"
       width="1.9"
       height="2.5"
       id="rect495" />
    <rect
       class="cls-6"
       x="55.299999"
       y="64.699997"
       width="1.9"
       height="0.80000001"
       id="rect497" />
    <path
       class="cls-3"
       d="m 160,2.1 v 1.5 h -1 c -1.4,0 -3.8,0 -3.8,4.5 V 26.4 C 155.2,37.6 150.3,43 140.3,43 129,43 123.7,38.5 123.7,28.8 V 8 c 0,-4.5 -2.4,-4.5 -4.6,-4.5 h -0.5 V 2 h 16.9 V 3.5 H 135 c -2.1,0 -4.7,0 -4.7,4.5 v 19.8 c 0,8.5 3.6,12.7 10.9,12.7 7.1,0 10.9,-4.5 10.9,-12.9 V 8 c 0,-4.5 -2.5,-4.5 -4.3,-4.5 h -0.9 V 2 c 0.6,0.1 12.7,0.1 13.1,0.1"
       id="path499"
       style="fill:#ffffff;fill-opacity:1" />
    <path
       class="cls-3"
       d="m 178.3,40.7 v 1.5 H 164 v -1.5 h 0.6 c 4.7,0 5.3,-3.6 5.3,-7.6 V 9 c 0,-3.8 -2.2,-5.4 -5.3,-5.4 h -0.5 V 2.1 h 11.2 l 24.3,29.8 V 9.2 c 0,-5.1 -3.6,-5.7 -5.1,-5.7 h -1 V 2 h 14.4 v 1.5 h -0.6 c -2.5,0 -5.2,0.6 -5.2,7.6 V 42.3 H 200 L 172.3,9 v 24.1 c 0,4 0.6,7.6 5.4,7.6"
       id="path501"
       style="fill:#ffffff;fill-opacity:1" />
    <path
       class="cls-3"
       d="m 254.9,33.7 8.8,-24.6 c 1.6,-4.2 0.6,-5.5 -3.1,-5.5 h -0.7 V 2.1 h 11.4 V 3.6 H 271 c -1.2,0 -2.7,0.4 -3.8,3.1 l -13.3,35.6 h -2.5 L 236.9,7 C 235.7,4.1 234.4,3.6 232,3.6 h -0.3 V 2.1 h 16.5 v 1.5 h -1.1 c -2.8,0 -3.4,1.8 -2.6,3.9"
       id="path503"
       style="fill:#ffffff;fill-opacity:1" />
    <path
       class="cls-3"
       d="m 327.9,2.1 c 8.9,0 13.3,3.3 13.3,10 0,5.7 -4.4,8.6 -7.9,10 l -0.3,0.1 9.8,14.9 c 1.6,2.4 2.9,3.4 5.6,3.5 v 1.5 H 338.2 L 326.3,23.3 h -4.4 v 12.5 c 0,4.5 2,4.9 4.8,4.9 h 0.8 v 1.5 h -17.4 v -1.5 h 0.8 c 1.9,0 4.2,-0.9 4.2,-3.4 V 8.2 c 0,-4.6 -2.7,-4.6 -4.2,-4.6 h -0.8 V 2.1 h 17.8 M 321.7,4 v 17.7 h 3.4 c 6.2,0 9,-2.8 9,-9.3 0,-5.3 -3.4,-8.7 -8.5,-8.7 -1.2,0.1 -2.8,0.1 -3.9,0.3 z"
       id="path505"
       style="fill:#ffffff;fill-opacity:1" />
    <path
       class="cls-3"
       d="m 369.5,34.6 c 0,-4.9 -4.2,-6.8 -8.1,-8.8 -4.6,-2.4 -9.8,-4.8 -9.8,-12.2 0,-7.2 5.4,-11.8 13.2,-11.8 a 40,40 0 0 1 8.4,1 l 0.5,7.8 -1.5,0.2 c -0.7,-4.1 -2.8,-7.2 -7.4,-7.2 -4.3,0 -7.5,2.7 -7.5,7.4 0,4.5 4.2,6.4 8,8.3 4.8,2.4 10.2,4.9 10.2,12.3 0,8.3 -7.4,12 -14.2,12 a 19.23,19.23 0 0 1 -9.5,-2.3 l -1,-8.7 1.5,-0.3 c 1.1,5.8 4.8,9.1 9.6,9.1 4.6,0 7.6,-2.8 7.6,-6.8"
       id="path507"
       style="fill:#ffffff;fill-opacity:1" />
    <path
       class="cls-3"
       d="m 398,2.1 v 1.5 h -0.6 C 395.1,3.6 393,4 393,7.1 v 30 c 0,3.1 2.1,3.5 4.4,3.5 h 0.6 v 1.5 h -16.7 v -1.5 h 0.6 c 2.3,0 4.4,-0.4 4.4,-3.5 v -30 c 0,-3.1 -2.1,-3.5 -4.4,-3.5 h -0.6 V 2.1 H 398"
       id="path509"
       style="fill:#ffffff;fill-opacity:1" />
    <path
       class="cls-3"
       d="m 229.3,2.1 v 1.5 h -0.6 c -2.3,0 -4.4,0.4 -4.4,3.5 v 30 c 0,3.1 2.1,3.5 4.4,3.5 h 0.6 v 1.5 h -16.7 v -1.5 h 0.6 c 2.3,0 4.4,-0.4 4.4,-3.5 v -30 c 0,-3.1 -2.1,-3.5 -4.4,-3.5 h -0.6 V 2.1 h 16.7"
       id="path511"
       style="fill:#ffffff;fill-opacity:1" />
    <path
       class="cls-3"
       d="m 562.5,59.9 0.1,10.6 -1.7,0.4 c -0.4,-4.6 -1.4,-8.4 -8.9,-8.4 h -10 v 19.6 h 8.6 c 4.2,0 5.3,-2.4 5.8,-6.4 h 1.7 v 16.4 h -1.7 c -0.3,-3.9 -1.2,-7 -5.8,-7 H 542 v 17.2 c 0,5 4.3,5 8.9,5 8.2,0 12,-0.5 14.3,-8.8 0.3,0.1 1.7,0.4 1.7,0.4 l -2.3,11.1 h -37.3 v -1.8 h 0.7 c 2.9,0 5.5,-0.5 5.5,-4.4 V 66.1 c 0,-3.9 -2.6,-4.4 -5.5,-4.4 h -0.7 v -1.8 h 35.2"
       id="path513"
       style="fill:#ffffff;fill-opacity:1" />
    <path
       class="cls-3"
       d="m 359.4,59.9 c 11.1,0 16.6,4.1 16.6,12.5 0,7.1 -5.6,10.8 -10,12.5 l -0.3,0.1 12.3,18.7 c 2,3 3.6,4.2 7,4.4 V 110 H 372.1 L 357.2,86.4 h -5.5 V 102 c 0,5.7 2.5,6.1 6.1,6.1 h 1 v 1.8 H 337 v -1.8 h 1 c 2.4,0 5.3,-1.1 5.3,-4.2 V 67.4 c 0,-5.8 -3.4,-5.8 -5.3,-5.8 h -1 v -1.8 c 0.5,0.1 22.4,0.1 22.4,0.1 m -7.7,2.4 v 22.2 h 4.3 c 7.8,0 11.3,-3.5 11.3,-11.6 C 367.3,66.3 363,62 356.6,62 a 37.93,37.93 0 0 0 -4.9,0.3 z"
       id="path515"
       style="fill:#ffffff;fill-opacity:1" />
    <path
       class="cls-3"
       d="m 409,59.9 v 1.8 h -0.7 c -2.9,0 -5.5,0.5 -5.5,4.4 v 37.7 c 0,3.9 2.6,4.4 5.5,4.4 h 0.7 v 1.8 h -21 v -1.8 h 0.7 c 2.9,0 5.5,-0.5 5.5,-4.4 V 66.1 c 0,-3.9 -2.6,-4.4 -5.5,-4.4 H 388 v -1.8 h 21"
       id="path517"
       style="fill:#ffffff;fill-opacity:1" />
    <path
       class="cls-3"
       d="m 406.7,2.1 h 26.5 c 1.3,0 3,-0.3 3.3,-2.1 h 1.3 l -1,10.4 h -1.4 C 435.3,8 435,4.5 431.1,4.5 H 423 v 30.9 c 0,4.8 2.3,5.2 4.9,5.2 h 0.8 v 1.5 h -18.2 v -1.5 h 0.8 c 3,0 4.9,-0.2 4.9,-5.1 V 4.5 H 408 c -4.2,0 -4.6,1.8 -5.4,5.9 h -1.4 l 0.9,-10.3 h 1.2 c 0.5,1.7 2,2 3.4,2"
       id="path519"
       style="fill:#ffffff;fill-opacity:1" />
    <path
       class="cls-3"
       d="M 478.7,2.1 V 3.6 C 476.4,3.7 475,5.3 474,6.8 l -10.2,15.7 v 12.8 c 0,5.1 1.8,5.5 4.9,5.5 h 0.8 v 1.5 h -18.2 v -1.5 h 0.8 c 3.2,0 4.9,-0.8 4.9,-5 V 23.5 L 446,7.7 c -1.7,-2.4 -3,-4 -5.6,-4 h -0.3 V 2.2 h 16.5 v 1.5 h -0.5 c -3.2,0 -3.4,1.7 -2.1,3.6 l 8.5,13.2 7.6,-12 c 1.7,-2.6 2.2,-4.9 -2.1,-4.9 h -0.7 V 2.1"
       id="path521"
       style="fill:#ffffff;fill-opacity:1" />
    <path
       class="cls-3"
       d="m 490.8,22.4 c 0,-11.9 9,-21.2 20.5,-21.2 12.6,0 21.3,8.1 21.3,19.8 0,12.7 -8.8,22 -21,22 -12,0 -20.8,-8.6 -20.8,-20.6 m 7.5,-2 c 0,9.9 4.4,20.5 14,20.5 8.8,0 13,-6.1 13,-18.6 0,-9.2 -4.9,-19 -14,-19 -12.1,0 -13,13.1 -13,17.1 z"
       id="path523"
       style="fill:#ffffff;fill-opacity:1" />
    <path
       class="cls-3"
       d="m 537.3,42.1 v -1.5 h 0.6 c 2.3,0 4.4,-0.4 4.4,-3.5 v -30 c 0,-3.1 -2.1,-3.5 -4.4,-3.5 h -0.6 V 2.1 h 28 l 0.1,8.5 a 5,5 0 0 1 -1.3,0.3 C 563.8,7.5 563,4.2 558.2,4.2 h -9.1 v 15.7 h 8 c 3.3,0 3.8,-2.6 3.8,-4.7 h 1.3 V 28 h -1.3 c 0,-2.5 -0.6,-5.7 -4.7,-5.7 h -7.1 v 14.8 c 0,3.5 3,3.5 5.6,3.5 h 0.5 v 1.5"
       id="path525"
       style="fill:#ffffff;fill-opacity:1" />
    <path
       class="cls-3"
       d="m 121.8,85 c 0,-7.5 3,-14.8 8.2,-19.5 a 27.25,27.25 0 0 1 18.4,-6.8 39.22,39.22 0 0 1 17,3.6 l 0.5,11.6 -1.6,0.2 c -1.9,-6.7 -5,-12.9 -15.7,-12.9 -10.9,0 -17.7,8.7 -17.7,22.6 0,12.4 5.5,24.1 18.8,24.1 7.5,0 12.8,-2.8 16.8,-8 l 1.3,2.5 c -4.5,5.9 -11.5,9 -19.5,9 -16.1,0 -26.5,-9.5 -26.5,-26.4"
       id="path527"
       style="fill:#ffffff;fill-opacity:1" />
    <path
       class="cls-3"
       d="m 230.1,69.6 -1.7,31 c -0.3,6.9 1.8,7.5 6.4,7.6 h 0.4 v 1.8 h -16.9 v -1.8 h 0.6 c 5.7,-0.2 6.1,-3.4 6.3,-8 l 2,-31.7 c 0.3,-4.3 -2.1,-6.8 -6.1,-6.8 h -0.6 v -1.8 h 14.2 c 0.2,0.4 17,38 17,38 0,0 16,-37.6 16.1,-38.1 h 13.9 v 1.8 h -0.3 c -5.6,0 -6.6,1.8 -6.2,8.9 l 1.9,33.3 c 0.3,3.9 2.3,4.2 6.2,4.4 v 1.8 h -20.8 v -1.8 h 0.1 c 3.4,-0.2 5.8,-0.3 5.8,-3.8 l -0.1,-3.6 -1.5,-32.1 c 0,0 -17.2,41.3 -17.4,41.7 h -1.5 c 0.2,-0.3 -17.8,-40.8 -17.8,-40.8"
       id="path529"
       style="fill:#ffffff;fill-opacity:1" />
    <path
       class="cls-3"
       d="m 416.9,110.1 v -1.8 h 0.7 c 2.9,0 5.5,-0.5 5.5,-4.4 V 66.2 c 0,-3.9 -2.6,-4.4 -5.5,-4.4 h -0.7 V 60 h 22.4 c 8.3,0 15.3,2.1 20.2,6.6 4.9,4.5 7.4,10.8 7.4,18.3 a 26.57,26.57 0 0 1 -7.7,18.7 c -4.9,4.9 -11.8,6.5 -18.8,6.5 m -8.7,-47.8 v 39.4 c 0,5.3 2.3,6.2 7.6,6.2 12.7,0 18.5,-10.9 18.5,-21.6 0,-16.6 -6.9,-24.2 -21,-24.2 -1.3,0 -3.9,0.1 -5.1,0.2 z"
       id="path531"
       style="fill:#ffffff;fill-opacity:1" />
    <path
       class="cls-3"
       d="M 509.7,107.5 V 95.2 c 0,-2.7 -2,-4.1 -5.7,-4.1 h -0.6 v -1.8 h 19.3 v 1.8 h -0.6 c -2.7,0 -4.1,1.4 -4.1,4.1 v 13.7 a 58.14,58.14 0 0 1 -17.6,2.7 c -16.6,0 -27.3,-10.7 -27.3,-27.4 0,-17.7 14.1,-25.7 27.4,-25.7 a 54.24,54.24 0 0 1 16,2.5 l 0.8,12 h -1.7 c -2.1,-8.6 -5.9,-12 -14.6,-12 -11.7,0 -18.7,8.6 -18.7,22.4 0,12.7 6,25.3 19.3,25.3 a 18,18 0 0 0 8.1,-1.2"
       id="path533"
       style="fill:#ffffff;fill-opacity:1" />
    <path
       class="cls-3"
       d="m 305.5,84.1 v 17.7 c 0,4.9 1.6,6.3 6.7,6.3 6.1,0 10.7,-5 10.7,-11.9 0,-7.7 -4.7,-12.1 -12.6,-12.1 M 305.5,61.8 V 82 h 3.8 c 6.9,0 10.7,-3.4 10.7,-9.8 0,-7.1 -3.3,-10.4 -10,-10.4 z m 10.2,21 c 6.3,0.5 9.7,1.9 12.5,4.8 a 11.54,11.54 0 0 1 3.3,8.4 c 0,7.9 -7.2,14.2 -16.6,14.2 h -24.6 v -1.8 h 1 c 2.4,0 5.3,-1.2 5.3,-4.3 V 67.7 c 0,-5.8 -3.4,-5.8 -5.3,-5.8 h -1 v -1.8 h 22.3 c 10.5,0 16.2,3.8 16.2,11 0.1,7.7 -6.9,10.7 -13.1,11.7"
       id="path535"
       style="fill:#ffffff;fill-opacity:1" />
    <path
       class="cls-3"
       d="m 190.1,59.9 -15.9,43.3 c -1.2,3.1 -3.3,5 -6.4,5 h -0.2 v 1.9 h 15.3 v -1.9 h -0.7 c -3.7,0 -6.2,-1.2 -4.6,-5.9 l 3.6,-10.1 H 197 l 4,11 c 1.1,3.5 -0.3,5.1 -4.1,5.1 h -0.4 v 1.9 h 19.4 v -1.9 h -0.2 c -2.6,0 -4.4,-1.4 -5.6,-4.8 L 193.8,59.9 m -4.6,10.2 7,19.6 h -14 z"
       id="path537"
       style="fill:#ffffff;fill-opacity:1" />
    <path
       class="cls-3"
       d="m 302,2.1 0.1,8.5 a 7.83,7.83 0 0 1 -1.4,0.3 c -0.3,-3.7 -1.1,-6.7 -7.1,-6.7 h -8 v 15.6 h 6.8 c 3.3,0 4.3,-1.9 4.6,-5.1 h 1.4 V 27.8 H 297 c -0.2,-3.1 -0.9,-5.6 -4.6,-5.6 h -6.8 V 36 c 0,4 3.4,4 7.1,4 6.5,0 9.6,-0.4 11.4,-7 0.3,0.1 1.3,0.3 1.3,0.3 l -1.8,8.8 h -29.7 v -1.5 h 0.6 c 2.3,0 4.4,-0.4 4.4,-3.5 v -30 c 0,-3.1 -2.1,-3.5 -4.4,-3.5 h -0.6 V 2.1 H 302"
       id="path539"
       style="fill:#ffffff;fill-opacity:1" />
  </g>
</svg>
